<svg id="Layer_1" data-name="Layer 1" xmlns="http://www.w3.org/2000/svg" viewBox="0 0 144 144"><defs><style>.cls-1{fill:#b66f29;}.cls-2{fill:#333;}.cls-3{fill:#f7931e;}.cls-4{fill:#fff;}.cls-5{fill:#754c24;}.cls-6{fill:#c8c8c8;}.cls-7{fill:#234050;}.cls-8{fill:#587789;}</style></defs><path d="M93.63,27.59s25.7-14.45,27.84-13.83S140,34.29,136.37,39.64s-9.37,4.2-11.15.89-5-17.75-6.34-18.2-22.66,7.5-22.66,7.5Z"/><path class="cls-1" d="M39.38,76.5S25.59,82,23.05,80s-5.49-10.88-4.42-12.4,6.43-2.72,7.23-5.8-2.54-8-5.55-7.36-5.22,9.63-6.49,9.9-1.48-9-4.76-9.1S.7,60.57,2.71,64.11s7.76,1.14,7.63,4.15-8.1-.74-9.77,2.07-.74,9.31,3.81,9.24,7.7-7.83,9-6.36-.74,12.25,3.14,14.59,21.22-7.16,21.22-7.16Z"/><path class="cls-1" d="M104.21,132.16s15.53-.55,18.87-2.15,5.13-13.78,4.86-14.72-2.85.38-5.76-3.49c-3.3-4.39-.39-9.68,3.8-9.68,5.48,0,4.14,8.63,6.69,9.3,1.72.46-.31-6.8,3.88-7.76,3.88-.89,6.56,2.9,5.89,5.22s-5.53,4.93-5,6.27,3.93-2.38,5.53,0,.81,5.76-2,6-2.68-3-4.69-1.81-5.8,16.25-7.67,17.05-26.23-.91-26.23-.91Z"/><path class="cls-1" d="M40.85,132.16s-17.67,1.72-19.4,0-3.89-11.23-3.35-13.38,3.95-3.36,5.09-7c1.2-3.82-1.08-6.83-5.76-6.16s-2.41,8.22-4.28,9c-2,.87-.68-4-4-4.78-3.81-.84-6.29,3.31-5.32,6,.69,1.93,6.93,1.71,5.72,4.59-.55,1.33-5.35-2.09-6.56-1-1.87,1.76-.73,5.32,1.07,5.77,2.41.61,4.89-2.54,5.83-.8s2.87,14.7,5.28,15.25S43.53,135,43.53,135Z"/><path class="cls-2" d="M50,30.79S37.77,9.84,34.11,9.66s-18.29,16.6-16.95,22,4.82,6.78,9.1,3.75,7.59-14.55,9.37-15.08S49.37,33.66,49.37,33.66Z"/><path class="cls-3" d="M51.69,42.5A63.25,63.25,0,0,1,44.2,65.34C37.77,76.58,31.35,84,30.28,100.46s4.82,35,16.95,37.15,46,3.57,54.07,0S119,119.1,115.58,98.29,102,64.45,98.63,55.17a43.33,43.33,0,0,1-2.86-16.42s3.57-5,2.32-8.12-9-10.26-13.2-8.66-10,8.58-11.67,8.66-6.54-7.35-11.53-7.56-11.78,4.62-12.85,7.56S51.69,42.5,51.69,42.5Z"/><path class="cls-1" d="M95.45,68.75c0,13.24-10,24-22.23,24S51,82,51,68.75s10-24,22.24-24S95.45,55.52,95.45,68.75Z"/><path d="M89.7,68.75A16.49,16.49,0,1,1,73.22,52.68,16.29,16.29,0,0,1,89.7,68.75Z"/><path class="cls-2" d="M80.69,60.88c0,2.56-3.34,4.64-7.47,4.64s-7.48-2.08-7.48-4.64,3.35-4.64,7.48-4.64S80.69,58.31,80.69,60.88Z"/><path class="cls-4" d="M98.2,41.6A12.49,12.49,0,1,1,85.71,29.11,12.49,12.49,0,0,1,98.2,41.6Z"/><path d="M88.9,41.6a3.19,3.19,0,1,1-3.19-3.19A3.19,3.19,0,0,1,88.9,41.6Z"/><path class="cls-4" d="M48.23,41.6A12.5,12.5,0,1,0,60.72,29.11,12.49,12.49,0,0,0,48.23,41.6Z"/><path d="M57.53,41.6a3.2,3.2,0,1,0,3.19-3.19A3.19,3.19,0,0,0,57.53,41.6Z"/><path class="cls-1" d="M108.88,81.21s-15.7,16.61-18.2,15.7-3.57-4-7.23-3.23-5.17,6.16-3.3,8.84,5.53-2.41,6.78,0-6,4.82-5,8.21,7,5.26,8.65,4.1.27-7,2.77-7.49.18,5.26,2.23,6.78,7.23.44,7.67-3.93-4.73-7.4-4.37-9.28,12.67-17,12.67-17Z"/><path class="cls-5" d="M73.86,132.16a2,2,0,1,1-2-1.92A2,2,0,0,1,73.86,132.16Z"/><path d="M65.14,99H65A33,33,0,0,1,52,94.19,29.77,29.77,0,0,1,41.7,83.59a1.06,1.06,0,0,1,.48-1.43,1.08,1.08,0,0,1,1.44.48,28,28,0,0,0,9.52,9.75,31.41,31.41,0,0,0,12.12,4.45A1.07,1.07,0,0,1,65.14,99Z"/><path class="cls-6" d="M72.22,94V91C83.78,91,105.81,73.88,105.81,65h2.79C108.6,76.25,84.24,94,72.22,94Z"/><path class="cls-7" d="M74.07,96.56H70.35c-3.09,0-5.59-1.82-5.59-4.07s2.5-4.07,5.59-4.07h3.72c3.09,0,5.59,1.82,5.59,4.07S77.16,96.56,74.07,96.56Z"/><path class="cls-7" d="M104.49,55.08l-.41-17.22a58.67,58.67,0,0,0-.44-8.38,27.28,27.28,0,0,0-2.46-7.8A26.42,26.42,0,0,0,89.58,10,36.41,36.41,0,0,0,72.66,6.13,36.45,36.45,0,0,0,55.73,10,26.4,26.4,0,0,0,44.14,21.68a27,27,0,0,0-2.46,7.8,57.15,57.15,0,0,0-.45,8.38l-.41,17.22H38.48l-.4-17.22a58.1,58.1,0,0,1,.23-8.8,30.47,30.47,0,0,1,2.51-8.73,29.14,29.14,0,0,1,13-13.43,42,42,0,0,1,37.69,0,29.14,29.14,0,0,1,13,13.43A30.47,30.47,0,0,1,107,29.06a59.46,59.46,0,0,1,.24,8.8l-.4,17.22Z"/><path class="cls-8" d="M40.35,67.71c-4.2,0-5.26-3.76-5.26-8.39v-15c0-4.63,1.06-8.39,5.26-8.39h1v31.8Z"/><rect class="cls-7" x="41.36" y="35.91" width="2.16" height="31.8"/><path class="cls-8" d="M105.61,67.71c4.2,0,5.26-3.76,5.26-8.39v-15c0-4.63-1.06-8.39-5.26-8.39h-1v31.8Z"/><rect class="cls-7" x="102.43" y="35.91" width="2.17" height="31.8"/></svg>