<svg id="Layer_1" data-name="Layer 1" xmlns="http://www.w3.org/2000/svg" viewBox="0 0 1074.4 584.2"><defs><style>.cls-1{fill:#7dc1c2;}.cls-2{fill:#d5df6f;}.cls-3{fill:#f55f13;}.cls-4{fill:#f7f7f7;}.cls-20,.cls-5,.cls-8{opacity:0.3;}.cls-6{fill:#2d566c;}.cls-7{fill:#234050;}.cls-19,.cls-8{fill:#fff;}.cls-9{fill:#ea9926;}.cls-10{fill:#ffbe5a;}.cls-11{fill:#ebebeb;}.cls-12{fill:#c8c8c8;}.cls-13{opacity:0.2;}.cls-14{fill:#bcc751;}.cls-15{fill:#55adb8;}.cls-16{fill:#dcdcdc;}.cls-17{fill:#ededed;}.cls-18{fill:#a5b320;}.cls-21{fill:#b66f29;}.cls-22{fill:#333;}.cls-23{fill:#f7931e;}.cls-24{fill:#754c24;}.cls-25{fill:#587789;}</style></defs><path class="cls-1" d="M269.27,165.68c-6.51,0-11.25,5.11-11.25,11.88,0,6.62,4.74,11.72,11.25,11.72s11.3-5.1,11.3-11.72C280.57,170.79,275.77,165.68,269.27,165.68Zm25.88-43.11c0-15-10.83-21.82-25.26-21.82-9.42,0-17.49,4.74-23.22,11.61L257,121.79c3.48-3.44,6.92-5.88,11.61-5.88,5.09,0,8.53,2.81,8.53,8.07,0,9.53-18.59,16.82-16,34.31h16.45C276,143.08,295.15,138.41,295.15,122.57Z"/><path class="cls-1" d="M517.35,100.22l31.4,25.6-31.4,25.59Z"/><polygon class="cls-1" points="548.75 125.82 517.35 151.41 517.35 100.22 548.75 125.82"/><path class="cls-1" d="M618.21,151.41l-31.46-25.59,31.46-25.6Z"/><polygon class="cls-1" points="618.21 100.22 618.21 151.41 586.75 125.82 618.21 100.22"/><path class="cls-1" d="M556.62,132.18l11.16,9.08,11.15-9.08,30.26,24.65H526.36Z"/><polygon class="cls-1" points="609.19 156.83 526.36 156.83 556.62 132.18 567.78 141.26 578.93 132.18 609.19 156.83"/><path class="cls-1" d="M567.78,128.46,526.36,94.74h82.83Z"/><polygon class="cls-1" points="609.19 94.74 567.78 128.46 526.36 94.74 609.19 94.74"/><path class="cls-1" d="M102.13,331.72c15.78,0,25.86,10.73,25.86,26,0,13.37-9,20.08-16.65,20.08-4.17,0-7.6-2-8.41-5.55h-.14A11.83,11.83,0,0,1,94,377.07c-5.77,0-9.64-4.23-9.64-10.95,0-8.91,6.35-17.9,14.76-17.9a5.71,5.71,0,0,1,5.55,3.65h.14l1-3.06h6.65l-3.35,16.07c-1,4.23.07,6.28,3.35,6.28,4.39,0,8.69-5.12,8.69-13.15,0-10.45-5.62-19.8-19.93-19.8-12.49,0-24.84,10.67-24.84,27.11,0,14.38,9.93,21.32,21.33,21.32a25.46,25.46,0,0,0,11.1-2.85l2.34,5.85a29.28,29.28,0,0,1-14.32,3.5c-14.61,0-27.68-8.91-27.68-27.53C69.19,345.15,84.16,331.72,102.13,331.72Zm-5.84,38.63c1.53,0,3-.87,4.82-3.28l1.75-9.86a3.65,3.65,0,0,0-3.36-2.12c-4.38,0-7,6-7,10.37C92.49,368.75,93.88,370.35,96.29,370.35Z"/><path class="cls-1" d="M749.27,301.5c6.6,0,11.51,5.17,11.51,12s-4.91,11.91-11.51,11.91-11.53-5.18-11.53-11.91S742.66,301.5,749.27,301.5Zm-8.94-47.12-.64-17.2h19.15l-.64,17.2L755.48,294H743.05Z"/><polygon class="cls-1" points="353.43 535.22 264.01 535.22 264.01 529.06 347.27 529.06 347.27 502.13 353.43 502.13 353.43 535.22"/><polygon class="cls-1" points="81.69 535.22 40.36 535.22 40.36 258.33 107.07 258.33 107.07 264.49 46.52 264.49 46.52 529.06 81.69 529.06 81.69 535.22"/><polygon class="cls-1" points="858.05 554.35 746.18 554.35 746.18 525.55 752.34 525.55 752.34 548.19 858.05 548.19 858.05 554.35"/><polygon class="cls-1" points="868.44 357 767.94 357 767.94 350.84 862.28 350.84 862.28 262.18 868.44 262.18 868.44 357"/><rect class="cls-1" x="961.67" y="178.7" width="6.16" height="6.16"/><path class="cls-1" d="M967.83,390.1h-6.16V377.28h6.16Zm0-25.65h-6.16V351.62h6.16Zm0-25.66h-6.16V326h6.16Zm0-25.65h-6.16V300.31h6.16Zm0-25.66h-6.16V274.65h6.16Zm0-25.65h-6.16V249h6.16Zm0-25.66h-6.16V223.34h6.16Zm0-25.66h-6.16V197.69h6.16Z"/><rect class="cls-1" x="961.67" y="402.93" width="6.16" height="6.16"/><path class="cls-1" d="M173.35,417.53h-6.16v-7.17h6.16Zm0-19.48h-6.16V385.73h6.16Zm0-24.64h-6.16V361.1h6.16Zm0-24.63h-6.16V336.47h6.16Zm0-24.63h-6.16V311.83h6.16Zm0-24.63h-6.16V287.2h6.16Z"/><path class="cls-1" d="M408.55,535.22h-6.06v-6.16h6.06Zm-18.37,0H377.86v-6.16h12.32Zm-24.64,0H353.23v-6.16h12.31Z"/><rect class="cls-1" x="686.92" y="190.7" width="6.16" height="6.16"/><path class="cls-1" d="M693.08,278.2h-6.16V264.64h6.16Zm0-27.12h-6.16V237.53h6.16Zm0-27.11h-6.16V210.41h6.16Z"/><polygon class="cls-1" points="693.08 300.99 683.85 300.99 683.85 294.83 686.92 294.83 686.92 291.75 693.08 291.75 693.08 300.99"/><rect class="cls-1" x="668.82" y="294.83" width="7.51" height="6.16"/><rect class="cls-1" x="655.15" y="294.83" width="6.16" height="6.16"/><path class="cls-1" d="M459.94,392.54A109.59,109.59,0,1,1,350.35,283,109.6,109.6,0,0,1,459.94,392.54Z"/><path class="cls-2" d="M350.35,472.75a79.17,79.17,0,1,1,79.17-79.17A79.26,79.26,0,0,1,350.35,472.75Zm0-152.59a73.42,73.42,0,1,0,73.41,73.42A73.49,73.49,0,0,0,350.35,320.16Z"/><path class="cls-2" d="M350.35,357.36a150.88,150.88,0,0,1-29.68-2.91,148.51,148.51,0,0,1-28.58-8.78l2.24-5.3a142.11,142.11,0,0,0,27.47,8.43,144.49,144.49,0,0,0,28.4,2.81,147,147,0,0,0,28.66-2.87,143,143,0,0,0,27.41-8.46l.53-.23h.59V343l1.11,2.63a148.16,148.16,0,0,1-28.51,8.8A150.53,150.53,0,0,1,350.35,357.36Z"/><path class="cls-2" d="M407.45,445.88h-.61l-.54-.23a141.4,141.4,0,0,0-27.41-8.46,145.22,145.22,0,0,0-57.06-.06,142.54,142.54,0,0,0-27.47,8.43l-2.23-5.31a148.6,148.6,0,0,1,28.57-8.77,151.19,151.19,0,0,1,59.34.06,148.4,148.4,0,0,1,28.51,8.81L407.43,443Z"/><path class="cls-2" d="M350.35,472.75c-19.55,0-41-41.44-41-79.17,0-34.78,23-79.17,41-79.17v5.75c-13.61,0-35.27,40.09-35.27,73.42C315.08,430,335.6,467,350.35,467Z"/><path class="cls-2" d="M350.35,472.75V467c14.75,0,35.26-37,35.26-73.41,0-33.33-21.65-73.42-35.26-73.42v-5.75c18,0,41,44.39,41,79.17C391.37,431.31,369.9,472.75,350.35,472.75Z"/><rect class="cls-2" x="347.47" y="317.29" width="5.76" height="152.58"/><rect class="cls-2" x="274.05" y="390.7" width="152.6" height="5.76"/><path class="cls-3" d="M426.19,335.38a31.76,31.76,0,1,1-31.75-31.75A31.75,31.75,0,0,1,426.19,335.38Z"/><path class="cls-4" d="M375.58,345.51c7-6.74,11.35-11.15,11.35-15,0-2.63-1.46-4.33-4.14-4.33-1.93,0-3.55,1.3-4.89,2.79l-2.52-2.52c2.28-2.44,4.57-3.86,8-3.86,4.81,0,7.92,3,7.92,7.68,0,4.46-4.14,9-9.1,14.28,1.3-.12,2.95-.28,4.18-.28h6.15v3.86H375.58Z"/><path class="cls-4" d="M413.49,341.69h-3.16v6.46h-4.26v-6.46H395v-3.08l9.94-15.52h5.4v15.09h3.16Zm-7.42-3.51v-5.67c0-1.46.12-3.75.2-5.21h-.16c-.62,1.3-1.34,2.56-2.05,3.9l-4.57,7Z"/><path class="cls-1" d="M837.87,436.94a88.61,88.61,0,1,1-88.61-88.61A88.61,88.61,0,0,1,837.87,436.94Z"/><path class="cls-3" d="M808.72,393.22l-59.46,43.72V363.1A73.58,73.58,0,0,1,808.72,393.22Z"/><path class="cls-4" d="M823.06,436.94a73.83,73.83,0,1,1-73.8-73.84v73.84l59.46-43.72A73.35,73.35,0,0,1,823.06,436.94Z"/><path class="cls-5" d="M756.75,508.37a68.6,68.6,0,1,1,58.91-103.7,73.82,73.82,0,1,0-38.24,100.52A68.27,68.27,0,0,1,756.75,508.37Z"/><rect class="cls-6" x="747.65" y="369.52" width="3.2" height="12.3"/><polygon class="cls-6" points="720.29 390 714.16 379.36 716.93 377.75 723.09 388.4 720.29 390"/><polygon class="cls-6" points="700.7 410.77 690.08 404.62 691.67 401.85 702.32 407.98 700.7 410.77"/><rect class="cls-6" x="681.84" y="435.33" width="12.29" height="3.22"/><polygon class="cls-6" points="691.67 472.04 690.06 469.26 700.7 463.11 702.32 465.89 691.67 472.04"/><polygon class="cls-6" points="716.93 496.12 714.16 494.51 720.29 483.87 723.09 485.48 716.93 496.12"/><rect class="cls-6" x="747.65" y="492.06" width="3.2" height="12.29"/><polygon class="cls-6" points="781.57 496.12 775.42 485.49 778.2 483.88 784.36 494.51 781.57 496.12"/><polygon class="cls-6" points="806.82 472.04 796.2 465.89 797.8 463.11 808.44 469.26 806.82 472.04"/><polygon class="cls-6" points="804.38 438.55 804.38 435.34 816.67 435.33 816.67 438.55 804.38 438.55"/><polygon class="cls-6" points="797.8 410.77 796.2 407.98 806.82 401.85 808.44 404.62 797.8 410.77"/><polygon class="cls-6" points="778.2 390 775.42 388.4 781.57 377.75 784.36 379.36 778.2 390"/><path class="cls-7" d="M756.75,363.49c-2.46-.24-5-.37-7.49-.37s-5,.13-7.5.37a73.85,73.85,0,1,0,15,0Zm-7.49,138.73a65.28,65.28,0,1,1,65.27-65.28A65.35,65.35,0,0,1,749.26,502.22Z"/><path class="cls-8" d="M677.56,439.08A73.81,73.81,0,0,1,802.5,385.83,73.81,73.81,0,1,0,698.14,490.19,73.56,73.56,0,0,1,677.56,439.08Z"/><path class="cls-5" d="M760.21,436.93a8.82,8.82,0,1,1-17.64,0c0-4.87,8.82-44.32,8.82-44.32S760.21,432.06,760.21,436.93Z"/><path class="cls-9" d="M758.09,436.93a8.83,8.83,0,1,1-17.66,0c0-4.87,8.82-44.32,8.82-44.32S758.09,432.06,758.09,436.93Z"/><path class="cls-10" d="M756.21,436.93a7,7,0,1,1-7-6.95A7,7,0,0,1,756.21,436.93Z"/><path class="cls-8" d="M744.2,438.57a7.24,7.24,0,0,1,7.25-7.25,6.64,6.64,0,0,1,1,.1,6.37,6.37,0,0,0-3-.76,6.55,6.55,0,0,0-4.21,11.59A7.18,7.18,0,0,1,744.2,438.57Z"/><path class="cls-11" d="M225.92,273.21l-108.1,33.21A9.73,9.73,0,0,1,105.67,300L62.22,158.55a9.72,9.72,0,0,1,6.44-12.16l108.11-33.21a9.72,9.72,0,0,1,12.15,6.45l43.45,141.42A9.73,9.73,0,0,1,225.92,273.21Z"/><path class="cls-12" d="M177.6,115.89a6.89,6.89,0,0,1,8.62,4.57l43.44,141.43a6.89,6.89,0,0,1-4.57,8.61L117,303.71a6.88,6.88,0,0,1-8.6-4.57L64.93,157.71a6.92,6.92,0,0,1,4.56-8.62l108.11-33.2Zm-.83-2.71L68.66,146.39a9.72,9.72,0,0,0-6.44,12.16L105.67,300a9.73,9.73,0,0,0,12.15,6.44l108.1-33.21a9.73,9.73,0,0,0,6.45-12.16L188.92,119.63a9.72,9.72,0,0,0-12.15-6.45Z"/><path class="cls-6" d="M87.26,140.67l49.15,160-18.6,5.72A9.71,9.71,0,0,1,105.67,300L62.22,158.55a9.72,9.72,0,0,1,6.44-12.16Z"/><rect class="cls-8" x="102.16" y="139.26" width="4.56" height="167.51" transform="translate(-60.82 40.44) rotate(-17.06)"/><rect class="cls-13" x="102.17" y="139.77" width="1.21" height="167.51" transform="translate(-60.92 39.87) rotate(-17.02)"/><path class="cls-3" d="M206.13,153.52l-5.78,3.3-10.3-33.51,6.64-.52a6.48,6.48,0,0,1,6.34,4.46l5.84,19A6.49,6.49,0,0,1,206.13,153.52Z"/><path class="cls-13" d="M196.69,122.79l-6.64.52.72,2.32,6.63-.51a6.47,6.47,0,0,1,6.34,4.46l-.71-2.33A6.48,6.48,0,0,0,196.69,122.79Z"/><path class="cls-14" d="M216.42,187l-5.78,3.3-10.29-33.52,6.63-.51a6.47,6.47,0,0,1,6.34,4.45l5.85,19A6.48,6.48,0,0,1,216.42,187Z"/><path class="cls-13" d="M207,156.31l-6.63.51.71,2.32,6.64-.5a6.48,6.48,0,0,1,6.34,4.45l-.72-2.33A6.47,6.47,0,0,0,207,156.31Z"/><path class="cls-10" d="M226.72,220.55l-5.78,3.3-10.3-33.51,6.64-.51a6.47,6.47,0,0,1,6.34,4.45l5.85,19A6.51,6.51,0,0,1,226.72,220.55Z"/><path class="cls-13" d="M217.28,189.83l-6.64.51.72,2.32,6.63-.5a6.47,6.47,0,0,1,6.35,4.45l-.72-2.33A6.47,6.47,0,0,0,217.28,189.83Z"/><path class="cls-15" d="M237,254.07l-5.77,3.3-10.3-33.52,6.63-.51a6.49,6.49,0,0,1,6.35,4.46l5.84,19A6.48,6.48,0,0,1,237,254.07Z"/><path class="cls-13" d="M227.57,223.34l-6.63.51.72,2.33,6.63-.51a6.48,6.48,0,0,1,6.34,4.45l-.71-2.32A6.49,6.49,0,0,0,227.57,223.34Z"/><path class="cls-12" d="M129.6,173.21,144,191.44s-.51,1.92-.94,4.18c-.14.81-.29,1.69-.38,2.53a11.07,11.07,0,0,0,0,3.9c1.95,6.34,18.71,20.28,25.24,20.46a4.9,4.9,0,0,0,1.56-.28,29.81,29.81,0,0,0,3.88-1.63h0c.75-.36,1.5-.75,2.22-1.12,2.48-1.31,4.52-2.56,4.52-2.56l20.32,9s-.78,1.56-2.09,3.6c-.37.58-.77,1.19-1.2,1.8-2.23,3.21-5.31,6.83-8.38,7.77a4.91,4.91,0,0,1-1.77.23c-23.2-1.68-52-19.69-65.07-45.73-2.7-5.39.87-11.88,4-16.08.46-.64.94-1.23,1.38-1.74a32.18,32.18,0,0,1,2.35-2.58Zm-1.09-3.53a3.71,3.71,0,0,0-1.45.86,32.87,32.87,0,0,0-2.65,2.92,21.83,21.83,0,0,0-1.54,1.94c-5.56,7.42-7.07,14.31-4.31,19.85,12.75,25.34,42,45.87,68.11,47.76a8.58,8.58,0,0,0,3.11-.38c3.36-1,6.73-4,10.31-9.18.46-.65.89-1.3,1.28-1.9,1.4-2.2,2.25-3.87,2.29-3.94a3.71,3.71,0,0,0,.19-2.9,3.76,3.76,0,0,0-2-2.14l-20.33-9a3.65,3.65,0,0,0-2.58-.15,4.06,4.06,0,0,0-.83.37s-2,1.2-4.32,2.44c-.63.33-1.32.69-2,1l-.13,0a23.63,23.63,0,0,1-3.34,1.42,3.08,3.08,0,0,1-.47.12C163,218.53,147.68,206,146.15,201h0a10.37,10.37,0,0,1,.16-2.33c.09-.84.23-1.64.36-2.38.39-2,.86-3.86.87-3.88a3.7,3.7,0,0,0-.67-3.22l-14.38-18.24a3.69,3.69,0,0,0-2.64-1.39,3.79,3.79,0,0,0-1.34.15Z"/><polygon class="cls-16" points="1020 446.92 858.06 446.92 873.96 434.19 881.46 428.19 939.03 382.13 996.6 428.19 1004.06 434.16 1020 446.92"/><polygon class="cls-4" points="866.91 446.91 939.02 389.21 1011.14 446.91 866.91 446.91"/><rect class="cls-4" x="858.05" y="446.91" width="161.95" height="112.51"/><polygon class="cls-13" points="1004.06 434.16 1003.82 441.06 1003.58 446.92 1000.37 531.81 877.66 531.81 874.44 446.92 874.2 441.06 873.96 434.19 881.46 428.19 996.6 428.19 1004.06 434.16"/><rect class="cls-4" x="877.67" y="432.1" width="122.7" height="99.7"/><polygon class="cls-13" points="858.05 559.42 939.02 499.7 858.05 446.91 858.05 559.42"/><polygon class="cls-13" points="1020 559.42 939.02 499.7 1020 446.91 1020 559.42"/><polygon class="cls-16" points="858.05 559.42 939.02 503.16 858.05 446.91 858.05 559.42"/><polygon class="cls-16" points="1020 559.42 939.02 503.16 1020 446.91 1020 559.42"/><polygon class="cls-13" points="858.05 559.42 939.02 493.35 1020 559.42 858.05 559.42"/><polygon class="cls-4" points="858.05 559.42 939.02 494.64 1020 559.42 858.05 559.42"/><path class="cls-3" d="M941.69,439.36c11.88,0,19.47,8.09,19.47,19.58,0,10.07-6.76,15.13-12.54,15.13-3.13,0-5.72-1.54-6.32-4.18h-.11a8.93,8.93,0,0,1-6.61,3.63c-4.34,0-7.26-3.19-7.26-8.25,0-6.71,4.79-13.48,11.11-13.48a4.3,4.3,0,0,1,4.19,2.75h.1l.78-2.31h5L947,464.33c-.78,3.19,0,4.73,2.52,4.73,3.3,0,6.55-3.85,6.55-9.9,0-7.86-4.24-14.9-15-14.9-9.4,0-18.7,8-18.7,20.4,0,10.84,7.48,16.07,16.06,16.07a19.14,19.14,0,0,0,8.36-2.15l1.76,4.4a22,22,0,0,1-10.78,2.64c-11,0-20.84-6.71-20.84-20.74C916.89,449.48,928.16,439.36,941.69,439.36Zm-4.4,29.1c1.16,0,2.25-.66,3.63-2.48l1.32-7.42a2.75,2.75,0,0,0-2.53-1.6c-3.3,0-5.29,4.51-5.29,7.81C934.42,467.25,935.48,468.46,937.29,468.46Z"/><rect class="cls-17" x="81.69" y="419.55" width="182.32" height="156.45"/><rect class="cls-18" x="81.69" y="419.55" width="182.32" height="18.84"/><path class="cls-4" d="M258.63,434.69a1.37,1.37,0,0,1-.95-.39l-8.07-8.07a1.35,1.35,0,1,1,1.9-1.91l8.07,8.08a1.33,1.33,0,0,1,0,1.9A1.35,1.35,0,0,1,258.63,434.69Z"/><path class="cls-4" d="M250.55,434.69a1.34,1.34,0,0,1-.94-2.29l8.07-8.08a1.35,1.35,0,1,1,1.9,1.91l-8.07,8.07A1.35,1.35,0,0,1,250.55,434.69Z"/><rect class="cls-3" x="204.13" y="554.94" width="46.25" height="17.16"/><polygon class="cls-8" points="205.48 556.29 250.39 556.29 250.39 554.95 204.13 554.95 204.13 572.1 205.48 572.1 205.48 556.29"/><path class="cls-4" d="M217.18,565.06a2.43,2.43,0,0,0,1.6.7c.7,0,1.07-.31,1.07-.79s-.4-.67-.95-.91l-.84-.36a1.77,1.77,0,0,1-1.24-1.64,1.86,1.86,0,0,1,2.06-1.73,2.75,2.75,0,0,1,1.9.78l-.56.7a2,2,0,0,0-1.34-.53c-.58,0-1,.28-1,.73s.48.66,1,.86l.84.35a1.7,1.7,0,0,1,1.23,1.67,1.94,1.94,0,0,1-2.19,1.82,3.21,3.21,0,0,1-2.23-.9Z"/><path class="cls-4" d="M222.1,560.45h3.7v.92h-2.61v1.57h2.21v.92h-2.21v1.82h2.71v.92h-3.8Z"/><path class="cls-4" d="M227.16,560.45h1.13l1.91,3.46.63,1.31h0c0-.64-.14-1.42-.14-2.1v-2.67h1v6.15h-1.12l-1.91-3.47-.63-1.3h0c0,.64.14,1.39.14,2.08v2.69h-1.05Z"/><path class="cls-4" d="M233.34,560.45H235a2.71,2.71,0,0,1,3,3c0,2-1.11,3.11-2.94,3.11h-1.7Zm1.57,5.26c1.25,0,2-.71,2-2.22s-.7-2.16-2-2.16h-.47v4.38Z"/><rect class="cls-19" x="95.31" y="455.23" width="155.08" height="17.16"/><polygon class="cls-13" points="96.66 456.57 250.39 456.57 250.39 455.23 95.31 455.23 95.31 472.38 96.66 472.38 96.66 456.57"/><path class="cls-18" d="M95.31,446.39h1.12l1.92,3.46.63,1.31h0c0-.63-.15-1.42-.15-2.1v-2.67h1v6.15H98.8l-1.92-3.47-.63-1.3h0c.05.65.14,1.39.14,2.08v2.69h-1Z"/><path class="cls-18" d="M104.35,450.87h-2.07l-.48,1.67h-1.11l2-6.15H104l2,6.15h-1.14Zm-.25-.85-.21-.76c-.2-.64-.38-1.35-.56-2h0c-.17.68-.35,1.38-.55,2l-.22.76Z"/><path class="cls-18" d="M106.74,446.39H108l1.11,3,.4,1.16h0l.4-1.16,1.09-3h1.2v6.15h-1v-2.81c0-.58.09-1.4.14-2h0l-.5,1.4-1.06,2.8h-.51l-1.06-2.8-.5-1.4h0c0,.56.14,1.38.14,2v2.81h-1Z"/><path class="cls-18" d="M113.76,446.39h3.71v.92h-2.62v1.57h2.21v.92h-2.21v1.81h2.71v.93h-3.8Z"/><rect class="cls-19" x="95.31" y="494.91" width="155.08" height="54.65"/><polygon class="cls-13" points="96.66 496.25 250.39 496.25 250.39 494.91 95.31 494.91 95.31 549.57 96.66 549.57 96.66 496.25"/><path class="cls-18" d="M95.31,486h1.2l1.11,3,.41,1.17h0l.4-1.17,1.09-3h1.2v6.15h-1v-2.81c0-.57.08-1.39.14-2h0l-.5,1.41-1.06,2.79h-.5l-1.07-2.79-.49-1.41h0c.06.57.15,1.39.15,2v2.81h-1Z"/><path class="cls-18" d="M102.32,486H106v.92h-2.61v1.57h2.21v.93h-2.21v1.81h2.71v.92h-3.81Z"/><path class="cls-18" d="M107.61,490.57a2.41,2.41,0,0,0,1.6.7c.69,0,1.07-.32,1.07-.79s-.39-.67-1-.91l-.84-.36a1.77,1.77,0,0,1-1.25-1.64,1.87,1.87,0,0,1,2.07-1.73,2.72,2.72,0,0,1,1.89.78l-.55.7a2,2,0,0,0-1.34-.53c-.58,0-1,.27-1,.72s.47.66,1,.87l.84.34a1.75,1.75,0,0,1,1.24,1.68,2,2,0,0,1-2.21,1.82,3.19,3.19,0,0,1-2.22-.9Z"/><path class="cls-18" d="M112.59,490.57a2.43,2.43,0,0,0,1.6.7c.7,0,1.07-.32,1.07-.79s-.39-.67-1-.91l-.84-.36a1.78,1.78,0,0,1-1.24-1.64,1.86,1.86,0,0,1,2.06-1.73,2.7,2.7,0,0,1,1.89.78l-.55.7a2,2,0,0,0-1.34-.53c-.58,0-1,.27-1,.72s.47.66,1,.87l.84.34a1.75,1.75,0,0,1,1.24,1.68,2,2,0,0,1-2.21,1.82,3.21,3.21,0,0,1-2.22-.9Z"/><path class="cls-18" d="M120.37,490.44H118.3l-.48,1.66h-1.11l2-6.15H120l2,6.15h-1.15Zm-.25-.86-.21-.75c-.2-.65-.38-1.35-.56-2h0c-.16.69-.34,1.38-.54,2l-.22.75Z"/><path class="cls-18" d="M125.29,485.84a2.5,2.5,0,0,1,1.83.78l-.6.67a1.65,1.65,0,0,0-1.23-.5c-1.09,0-1.82.84-1.82,2.23s.65,2.25,1.88,2.25a1.33,1.33,0,0,0,.88-.28v-1.32h-1.16v-.9h2.14v2.71a2.91,2.91,0,0,1-2,.74c-1.64,0-2.87-1.13-2.87-3.17A2.92,2.92,0,0,1,125.29,485.84Z"/><path class="cls-18" d="M128.59,486h3.7v.92h-2.61v1.57h2.21v.93h-2.21v1.81h2.71v.92h-3.8Z"/><path class="cls-14" d="M438,237.89l12.31,36.84c0,4.54-2.33,5.37-5.21,1.87l-44.06-38.71H341.61a20.53,20.53,0,0,1-20.52-20.53V159.89a20.53,20.53,0,0,1,20.52-20.53h98.53a20.53,20.53,0,0,1,20.53,20.53v57.47c0,11.33-5.07,20.53-11.33,20.53Z"/><path class="cls-4" d="M349.75,181.94H432a6.16,6.16,0,1,0,0-12.32H349.75a6.16,6.16,0,0,0,0,12.32Z"/><path class="cls-4" d="M349.75,209.06H432a6.16,6.16,0,1,0,0-12.32H349.75a6.16,6.16,0,0,0,0,12.32Z"/><path class="cls-3" d="M668.74,174.58V129.43c0-8.9,7.84-16.12,17.51-16.12h84.08c9.66,0,17.51,7.22,17.51,16.12v9l27.32,8.89c4.64,1.51,4.72,4.15.17,5.9l-27.49,10.52v10.83c0,8.9-4.32,16.12-9.67,16.12H686.25C676.58,190.7,668.74,183.48,668.74,174.58Z"/><path class="cls-4" d="M693.2,146.75h70.18a4.85,4.85,0,1,0,0-9.67H693.2a4.85,4.85,0,1,0,0,9.67Z"/><path class="cls-4" d="M693.2,168.05h70.18a4.85,4.85,0,1,0,0-9.67H693.2a4.85,4.85,0,1,0,0,9.67Z"/><path class="cls-7" d="M964.9,279.63h-96a13.59,13.59,0,0,1-13.59-13.58V80.35a13.57,13.57,0,0,1,13.59-13.57h96a13.56,13.56,0,0,1,13.57,13.57v185.7A13.58,13.58,0,0,1,964.9,279.63Z"/><rect class="cls-4" x="867.52" y="81.25" width="98.74" height="164.42"/><rect class="cls-10" x="867.52" y="81.25" width="98.74" height="42.22"/><polygon class="cls-5" points="870.24 83.98 870.24 245.67 867.52 245.67 867.52 81.25 966.26 81.25 966.26 83.98 870.24 83.98"/><path class="cls-12" d="M924.38,270.58h-15c-4.5,0-8.15-3.05-8.15-6.81s3.65-6.78,8.15-6.78h15c4.48,0,8.13,3.05,8.13,6.78S928.86,270.58,924.38,270.58Z"/><g class="cls-20"><path d="M909.41,258.35h15c4.21,0,7.64,2.67,8,6.11,0-.23.08-.44.08-.69,0-3.73-3.65-6.78-8.13-6.78h-15c-4.5,0-8.15,3.05-8.15,6.78a3.82,3.82,0,0,0,.1.69C901.76,261,905.19,258.35,909.41,258.35Z"/></g><path class="cls-8" d="M868.89,66.78A13.57,13.57,0,0,0,855.3,80.35v185.7c0,.51.1,1,.15,1.5L946.89,66.78Z"/><path class="cls-14" d="M883.18,175.91a5.23,5.23,0,0,1-5.44-5v-5l-8.85-4.42c-1.79-.89-1.83-2.43-.1-3.43l9-5.14v-4.86c0-2.68,2.44-4.86,5.44-4.86H934a5.44,5.44,0,0,1,5.44,5.44v21.81a5.43,5.43,0,0,1-5.44,5.44Z"/><rect class="cls-4" x="886.81" y="152.41" width="44.78" height="3.48"/><rect class="cls-4" x="886.81" y="163.25" width="37.53" height="3.48"/><path class="cls-3" d="M950.6,221.49a5.24,5.24,0,0,0,5.44-5v-5l8.84-4.43c1.8-.89,1.84-2.43.1-3.42L956,198.51v-4.86c0-2.68-2.44-4.85-5.44-4.85H899.82a5.44,5.44,0,0,0-5.44,5.44v21.81a5.45,5.45,0,0,0,5.44,5.44Z"/><rect class="cls-4" x="902.19" y="197.98" width="44.78" height="3.48"/><rect class="cls-4" x="902.19" y="208.82" width="41.15" height="3.48"/><path d="M596.74,340s45.8-25.76,49.61-24.64,33.08,36.57,26.56,46.11S656.21,368.89,653,363s-8.9-31.64-11.29-32.44-40.39,13.36-40.39,13.36Z"/><path class="cls-21" d="M500.07,427.11s-24.57,9.76-29.1,6.18-9.78-19.4-7.87-22.1,11.44-4.85,12.88-10.34-4.54-14.31-9.9-13.12-9.31,17.18-11.57,17.65-2.62-16-8.47-16.22-14.9,9.55-11.33,15.87,13.84,2,13.6,7.39-14.43-1.31-17.41,3.7-1.32,16.58,6.79,16.46,13.72-14,16-11.34-1.31,21.83,5.61,26,37.8-12.76,37.8-12.76Z"/><path class="cls-21" d="M615.6,526.29s27.67-1,33.63-3.84,9.13-24.55,8.65-26.23-5.08.69-10.25-6.2c-5.89-7.83-.7-17.25,6.76-17.25,9.77,0,7.39,15.38,11.92,16.57,3.08.81-.56-12.12,6.92-13.83,6.91-1.59,11.68,5.16,10.49,9.3-1.13,3.9-9.86,8.79-8.9,11.17s7-4.25,9.85,0,1.43,10.25-3.57,10.73-4.77-5.37-8.35-3.22-10.34,28.94-13.67,30.37-46.75-1.63-46.75-1.63Z"/><path class="cls-21" d="M502.69,526.29s-31.48,3.08-34.58,0-6.92-20-6-23.83,7.05-6,9.07-12.4c2.14-6.8-1.91-12.17-10.26-11s-4.29,14.66-7.63,16.11c-3.59,1.55-1.21-7.22-7.16-8.53-6.8-1.49-11.2,5.9-9.47,10.74,1.22,3.43,12.33,3,10.19,8.16-1,2.37-9.54-3.72-11.69-1.71-3.34,3.14-1.32,9.49,1.91,10.3,4.29,1.07,8.7-4.54,10.37-1.44s5.13,26.2,9.42,27.17,50.57-8.56,50.57-8.56Z"/><path class="cls-22" d="M519,345.64S497.2,308.31,490.68,308s-32.59,29.58-30.21,39.28,8.59,12.08,16.22,6.67,13.52-25.91,16.7-26.87,24.48,23.69,24.48,23.69Z"/><path class="cls-23" d="M522,366.51a112.56,112.56,0,0,1-13.36,40.7c-11.45,20-22.89,33.29-24.8,62.6s8.58,62.38,30.21,66.2,82.05,6.36,96.36,0,31.48-33,25.44-70.08-24.17-60.31-30.21-76.84-5.09-29.26-5.09-29.26,6.36-8.89,4.13-14.46-16.06-18.3-23.53-15.44-17.74,15.29-20.79,15.44-11.65-13.11-20.55-13.48-21,8.24-22.9,13.48S522,366.51,522,366.51Z"/><path class="cls-21" d="M600,413.3c0,23.58-17.74,42.69-39.62,42.69s-39.63-19.11-39.63-42.69,17.74-42.69,39.63-42.69S600,389.72,600,413.3Z"/><path d="M589.75,413.3c0,15.83-13.16,28.65-29.38,28.65S531,429.13,531,413.3s13.16-28.65,29.39-28.65S589.75,397.48,589.75,413.3Z"/><path class="cls-22" d="M573.69,399.26c0,4.57-6,8.27-13.32,8.27S547,403.83,547,399.26s6-8.27,13.33-8.27S573.69,394.7,573.69,399.26Z"/><path class="cls-19" d="M604.89,364.92a22.26,22.26,0,1,1-22.26-22.27A22.26,22.26,0,0,1,604.89,364.92Z"/><path d="M588.32,364.92a5.69,5.69,0,1,1-5.69-5.69A5.69,5.69,0,0,1,588.32,364.92Z"/><path class="cls-19" d="M515.84,364.92a22.27,22.27,0,1,0,22.26-22.27A22.26,22.26,0,0,0,515.84,364.92Z"/><path d="M532.41,364.92a5.7,5.7,0,1,0,5.69-5.69A5.69,5.69,0,0,0,532.41,364.92Z"/><path class="cls-21" d="M623.92,435.5s-28,29.59-32.43,28-6.36-7.18-12.88-5.75-9.22,11-5.88,15.74,9.85-4.3,12.08,0-10.65,8.59-8.9,14.63,12.4,9.38,15.42,7.31.48-12.4,4.93-13.35.32,9.38,4,12.08,12.88.79,13.68-7-8.43-13.19-7.79-16.54,22.58-30.37,22.58-30.37Z"/><path class="cls-24" d="M561.5,526.29a3.63,3.63,0,1,1-3.62-3.42A3.51,3.51,0,0,1,561.5,526.29Z"/><path d="M546,467.16h-.2a58.65,58.65,0,0,1-23.25-8.52c-13-8.35-18.12-18.46-18.33-18.89a1.91,1.91,0,1,1,3.42-1.69c.05.09,4.89,9.62,17,17.36a55.69,55.69,0,0,0,21.59,7.94,1.91,1.91,0,0,1-.2,3.81Z"/><path class="cls-12" d="M558.58,458.19V453c20.61,0,59.86-30.55,59.86-46.43h5C623.42,426.66,580,458.19,558.58,458.19Z"/><path class="cls-7" d="M561.89,462.85h-6.64c-5.5,0-10-3.25-10-7.26s4.46-7.25,10-7.25h6.64c5.5,0,10,3.25,10,7.25S567.39,462.85,561.89,462.85Z"/><path class="cls-7" d="M616.1,388.94l-.73-30.69c-.1-5.12,0-10.2-.8-14.94a48,48,0,0,0-4.38-13.9,47.1,47.1,0,0,0-20.66-20.83c-9.06-4.75-19.62-6.91-30.15-6.87s-21.13,2.12-30.18,6.87a47.15,47.15,0,0,0-20.66,20.83,48.32,48.32,0,0,0-4.38,13.9c-.8,4.79-.7,9.75-.79,14.94l-.73,30.69h-4.18l-.72-30.69c-.06-5-.3-10.33.43-15.68A53.69,53.69,0,0,1,502.64,327c4.51-10,12.94-18.53,23.14-23.92s22-7.92,33.6-8,23.35,2.52,33.56,8S611.57,317,616.09,327a53.71,53.71,0,0,1,4.48,15.57c.73,5.39.49,10.6.43,15.68l-.72,30.69Z"/><path class="cls-25" d="M501.8,411.43c-7.49,0-9.39-6.68-9.39-14.93V369.72c0-8.25,1.9-15,9.39-15h1.79v56.66Z"/><rect class="cls-7" x="503.59" y="354.77" width="3.86" height="56.66"/><path class="cls-25" d="M618.09,411.43c7.49,0,9.38-6.68,9.38-14.93V369.72c0-8.25-1.89-15-9.38-15H616.3v56.66Z"/><rect class="cls-7" x="612.43" y="354.77" width="3.87" height="56.66"/></svg>