<svg id="Layer_1" data-name="Layer 1" xmlns="http://www.w3.org/2000/svg" viewBox="0 0 216 106"><defs><style>.cls-1{fill:#754c24;}.cls-2{fill:#b66f29;}.cls-3{fill:#333;}.cls-4{fill:#1a1a1a;}.cls-5{fill:#d27e1a;}.cls-6{fill:#f7931e;}.cls-7{fill:#ccc;}.cls-8{fill:#fff;}</style></defs><path class="cls-1" d="M159.1,51.35s.26,9.17.88,12.26c.77,3.87,3.13,7.89,3.29,9.16.13,1-.32,2.79-1.93,3a5.16,5.16,0,0,1-3.69-1.3,3.59,3.59,0,0,1-2.91,1.69c-1.31,0-1.6-1.56-1.6-1.56A2.46,2.46,0,0,1,150.82,76a1.79,1.79,0,0,1-2-1.38,1.54,1.54,0,0,1-2.05.29c-1.25-.69-1.35-3.29-.15-5.47a5.05,5.05,0,0,1,5.52-2.82c2.48.58,3.74,4,5.62,3.75.83-.13-1.34-5.16-1.67-8.27-.39-3.7.67-10.37.67-10.37Z"/><path class="cls-1" d="M137.92,55.06s-3,7-2.61,10.26a24.5,24.5,0,0,0,2.14,7.4c.51,1,.6,2.52-.45,2.62a9.52,9.52,0,0,1-3.59-.29,3.78,3.78,0,0,1-3.07,1.79c-1.38,0-1.69-1.65-1.69-1.65a2.62,2.62,0,0,1-2.45,1.52,1.88,1.88,0,0,1-2.07-1.46,1.64,1.64,0,0,1-2.17.3c-1.32-.73-1.81-2.67-.54-5s3.37-3.89,5.65-3.36c2.63.6,4.05,3.87,6,3.56.88-.14,0-4.55,0-6.47s2.06-9.23,2.06-9.23Z"/><path class="cls-2" d="M167.13,56.26s.31,10.84,1,14.5c.91,4.58,3.71,9.34,3.9,10.85.15,1.23-.39,3.29-2.28,3.54a6.1,6.1,0,0,1-4.38-1.54,4.23,4.23,0,0,1-3.44,2c-1.54,0-1.89-1.85-1.89-1.85a2.92,2.92,0,0,1-2.74,1.7A2.11,2.11,0,0,1,155,83.83a1.82,1.82,0,0,1-2.43.33c-1.48-.81-1.6-3.88-.18-6.47a6,6,0,0,1,6.53-3.33c2.94.68,4.43,4.79,6.66,4.44,1-.15-1.59-6.11-2-9.79-.46-4.38.79-12.27.79-12.27Z"/><path class="cls-1" d="M157.35,77.43A7.81,7.81,0,0,0,154.74,81a6.43,6.43,0,0,0,0,3.09l.28-.27a6.8,6.8,0,0,1,.22-3.29A16.64,16.64,0,0,1,157.35,77.43Z"/><path class="cls-3" d="M106.55,19S89.45,9.16,86,10.09,73.52,21.75,75.86,24.89s6,3.3,7.64,2.12,3.21-11.18,4.41-12.21,18,6.48,18,6.48Z"/><path d="M88.82,33.23s-15.8-1-17.18.63-3.09,21,.08,23.54c2.87,2.27,7.4.55,8.34-3.62.77-3.43-5.15-13.94-5-15.84s13.1-3.12,13.1-3.12Z"/><path class="cls-1" d="M159.83,84.21a9.21,9.21,0,0,1,.19-2.84,4.91,4.91,0,0,1,1.63-1.81,7.58,7.58,0,0,0-1.22,2.08,14,14,0,0,0-.35,2.12Z"/><path class="cls-1" d="M165,81a7.34,7.34,0,0,0-.16,1.69,12.09,12.09,0,0,0,.18,1.4l.36-.49a4.49,4.49,0,0,1-.27-1.06C165.09,82.07,165,81,165,81Z"/><path class="cls-2" d="M142.34,59.84s-4.06,8.58-3.54,12.49,3.1,6.86,3.91,8.42a2.86,2.86,0,0,1-.53,3.38c-2.14,1.34-5.18-.64-5.18-.64a4.47,4.47,0,0,1-3.63,2.12c-1.64,0-2-2-2-2a3.07,3.07,0,0,1-2.89,1.79A2.23,2.23,0,0,1,126,83.73a1.92,1.92,0,0,1-2.56.35c-1.57-.86-2.14-3.16-.64-5.9s4-4.6,6.69-4c3.1.72,5.35,4.58,7.7,4.21,1-.16-2.5-6-2.5-8.29s4.38-10.28,4.38-10.28Z"/><path class="cls-1" d="M127.69,77.66a5.53,5.53,0,0,0-2,3.09,6.67,6.67,0,0,0,0,3.26l.29-.28a7.28,7.28,0,0,1,.24-3.48A17.6,17.6,0,0,1,127.69,77.66Z"/><path class="cls-1" d="M131.1,84.13a9.69,9.69,0,0,1,.2-3,6.61,6.61,0,0,1,1.22-1.92s-.53,1.28-.79,2.2a15.42,15.42,0,0,0-.37,2.25Z"/><path class="cls-1" d="M136.59,80.75a8.45,8.45,0,0,0-.17,1.78,13.78,13.78,0,0,0,.2,1.48l.38-.52a4.87,4.87,0,0,1-.29-1.11C136.66,81.87,136.59,80.75,136.59,80.75Z"/><path class="cls-4" d="M171,14.81a69.85,69.85,0,0,0,21-.32c9.9-1.57,19.29-7.11,20.48-5.73s-1.81,13-12.13,17C193.43,28.4,187,20.45,186,21.12s2.54,4.93,5.91,7.25c1.28.88-4.82,1.91-8.37-2.05-2.14-2.38-3.33-6-4.14-6s2.43,8,1.22,8.21-3.09-.95-5.92-4.67c-3.19-4.2-3.55-7.4-3.55-7.4Z"/><path class="cls-5" d="M88.18,34.82s-4.57,2.31-5.35,5.61.8,4.47,1.67,4.63A5.58,5.58,0,0,0,87,44.45l4.91-5.14Z"/><path class="cls-6" d="M89.39,60.64l4.1-10.5L89.26,37.3s-2,.05-2.5-3.33,3.82-7.42,7.28-8a93.65,93.65,0,0,1,11.11-.65,14.87,14.87,0,0,1,.54-10.17c2.31-5.19,11-12.66,11.72-11.84S112.29,17,112.83,17.39s4.11-5.79,7-8.09,8.91-5.89,9.3-5.05S122,16,122,16a48.59,48.59,0,0,1,7.25-5c2.78-1.31,7.33-2.64,7.51-2s-5.39,7.42-5,7.56S170.2,13.73,171,14.81s4,21.41,2.15,30.38c-1.31,6.44-5.69,14.87-19.31,16.91s-13.91-.09-18.25-.8c-3.07-.51-7,2.07-7,2.07s-3.92,4.33-12.4,7.77a65.78,65.78,0,0,1-15.32,4.2Z"/><path class="cls-7" d="M99.1,42a6.85,6.85,0,1,1-7.62-6A6.84,6.84,0,0,1,99.1,42Z"/><path d="M90.44,46.64a1.42,1.42,0,1,1-1.58-1.24A1.42,1.42,0,0,1,90.44,46.64Z"/><path class="cls-8" d="M107.76,36.76a8.54,8.54,0,1,1-9.5-7.45A8.54,8.54,0,0,1,107.76,36.76Z"/><path d="M96.43,42a1.61,1.61,0,1,1-1.78-1.4A1.61,1.61,0,0,1,96.43,42Z"/><path class="cls-6" d="M111.19,40.23a10,10,0,0,0-5.49,0c-4.24,1.17-14.32,7.11-14.52,9.3C91.05,51,93,50.79,93.26,50.72a33.44,33.44,0,0,0,9.55-3.54A23.15,23.15,0,0,0,111.19,40.23Z"/><path d="M128.63,63.37s3.3-7,2.13-13.75S124,36.69,124,36.69a25.2,25.2,0,0,1,7.21,11.88c1.59,6.79-1.48,14.19-1.48,14.19Z"/><path class="cls-3" d="M71,81.32s.42,5.59.9,5.88,9.24-.88,8.48-3C78.82,79.87,71,81.32,71,81.32Z"/><path class="cls-3" d="M67.39,80.83l.77,7s-12.17,3-17.33,1.56c-3.56-1-8.09-6.48-5.26-8S67.39,80.83,67.39,80.83Z"/><path class="cls-3" d="M26,96.32s.42,5.59.91,5.88,9.23-.87,8.47-3C33.86,94.87,26,96.32,26,96.32Z"/><path class="cls-3" d="M22.43,95.83l.78,7s-12.18,3-17.34,1.56c-3.56-1-8.09-6.48-5.26-8S22.43,95.83,22.43,95.83Z"/><path class="cls-3" d="M115,91.68s.42,5.59.91,5.88,9.23-.87,8.47-3C122.82,90.23,115,91.68,115,91.68Z"/><path class="cls-3" d="M111.39,91.19l.78,7s-12.18,3-17.34,1.56c-3.56-1-8.08-6.48-5.26-8S111.39,91.19,111.39,91.19Z"/><path d="M106.86,69.18c.92,7.69-4.21,14.63-11.48,15.51S81.48,80,80.55,72.34,84.77,57.71,92,56.84,105.93,61.49,106.86,69.18Z"/><path class="cls-3" d="M95.65,61.18c1,1.41-.48,4.13-3.26,6.06s-5.84,2.35-6.82.93.48-4.12,3.26-6.05S94.67,59.76,95.65,61.18Z"/></svg>