<svg id="Layer_1" data-name="Layer 1" xmlns="http://www.w3.org/2000/svg" viewBox="0 0 1074.4 584.2"><defs><style>.cls-1{fill:#f2f2f2;}.cls-2{fill:#86ba90;}.cls-3{fill:#e87458;}.cls-4{fill:none;stroke:#3f3d56;stroke-miterlimit:10;}.cls-5{fill:#3f3d56;}.cls-6{fill:#8f5a39;}.cls-7{fill:#2f2e41;}.cls-8{fill:#fff;}.cls-9{fill:#f0643b;isolation:isolate;opacity:0.3;}.cls-10{fill:#b66f29;}.cls-11{fill:#de2321;}.cls-12{fill:#b31a17;}.cls-13{fill:#1a1a1a;}.cls-14{fill:#f7931e;}.cls-15{fill:#333;}.cls-16{fill:#ccc;}.cls-17{fill:#d1b200;}</style></defs><ellipse class="cls-1" cx="540.6" cy="549.3" rx="527.5" ry="34.9"/><path class="cls-2" d="M520.4,167c-85.9,0-147.7,55.1-147.7,183.8,0,145.8,61.7,184.4,147.7,184.4s151.3-42.3,151.3-184.4C671.8,198.9,606.4,167,520.4,167Zm.6,319.8c-59.5,0-90.6-34.9-90.6-135.9,0-89.1,32.4-136.1,91.9-136.1s91.9,30.9,91.9,136.1C614.2,449.3,580.5,486.8,521,486.8Z"/><path class="cls-3" d="M321.3,433.5H285.8V328.9a21,21,0,0,0-21-21h-8.3a21,21,0,0,0-21,21V433.5H135.3a12,12,0,0,1-12-12,12.22,12.22,0,0,1,1.4-5.6L230.8,215.1a21,21,0,0,0-8.7-28.3,5.94,5.94,0,0,1-.8-.4l-6.3-3a20.84,20.84,0,0,0-27.4,9.1L58.2,434.5a28.34,28.34,0,0,0,25,41.8H235.5v66.2a25.1,25.1,0,1,0,50.2,0V476.3h35.5a21.4,21.4,0,0,0,.1-42.8Zm658,0H943.8V328.9a21,21,0,0,0-21-21h-8.3a21,21,0,0,0-21,21V433.5H793.3a12,12,0,0,1-12-12,12.22,12.22,0,0,1,1.4-5.6L888.8,215.1a21,21,0,0,0-8.7-28.3,5.94,5.94,0,0,1-.8-.4l-6.3-3a20.84,20.84,0,0,0-27.4,9.1l-129.4,242a28.34,28.34,0,0,0,25,41.8H893.5v66.2a25.1,25.1,0,0,0,50.2,0V476.3h35.5a21.4,21.4,0,0,0,.1-42.8Z"/><path class="cls-4" d="M331.1,421.3H295.6V316.6a21,21,0,0,0-21-21h-8.3a21,21,0,0,0-21,21V421.2H145.1a12,12,0,0,1-12-12,12.22,12.22,0,0,1,1.4-5.6L240.6,202.8a21,21,0,0,0-8.7-28.3,5.94,5.94,0,0,1-.8-.4l-6.3-3a20.84,20.84,0,0,0-27.4,9.1L68,422.3a28.34,28.34,0,0,0,25,41.8H245.3v66.2a25.1,25.1,0,0,0,50.2,0V464.1H331a21.4,21.4,0,0,0,.1-42.8Zm666.6,0H962.2V316.6a21,21,0,0,0-21-21h-8.3a21,21,0,0,0-21,21V421.2H811.7a12,12,0,0,1-12-12,12.22,12.22,0,0,1,1.4-5.6L907.2,202.8a21,21,0,0,0-8.7-28.3,5.94,5.94,0,0,1-.8-.4l-6.3-3a20.84,20.84,0,0,0-27.4,9.1l-129.4,242a28.34,28.34,0,0,0,25,41.8H911.9v66.2a25.1,25.1,0,0,0,50.2,0V464h35.5a21.35,21.35,0,0,0,.1-42.7ZM540,156c-85.9,0-147.6,55.1-147.6,183.8,0,145.8,61.7,184.4,147.6,184.4s151.3-42.3,151.3-184.4C691.4,187.8,626,156,540,156Zm.6,319.8c-59.5,0-90.6-34.9-90.6-135.9,0-89.1,32.4-136.1,91.9-136.1s91.9,30.9,91.9,136.1C633.8,438.3,600.1,475.8,540.6,475.8Z"/><path class="cls-5" d="M576.2,184.2c-.8,3.2-4.1,5.8-7.8,7.5-7.8,3.8-17.4,4.9-26.8,5.3a55.82,55.82,0,0,1-7.1-.1,20,20,0,0,1-12.2-5.6,1.63,1.63,0,0,1-.5-2.3,1.21,1.21,0,0,1,.5-.5c5-5.5,13.3-8.8,21.6-11.2,6.3-1.8,17.4-6.6,24.3-5.9C574.9,171.9,577.2,180.2,576.2,184.2Z"/><path class="cls-6" d="M576.2,184.2c-.8,3.2-4.1,5.8-7.8,7.5-7.8,3.8-17.4,4.9-26.8,5.3a55.82,55.82,0,0,1-7.1-.1,20,20,0,0,1-12.2-5.6,1.63,1.63,0,0,1-.5-2.3,1.21,1.21,0,0,1,.5-.5c5-5.5,13.3-8.8,21.6-11.2,6.3-1.8,17.4-6.6,24.3-5.9C574.9,171.9,577.2,180.2,576.2,184.2Z"/><path class="cls-2" d="M1006.9,419.5a20.82,20.82,0,0,0,14.3-39.1,21.4,21.4,0,0,0-11.5-.8l.5,10.7-5.1-9.2a20.84,20.84,0,0,0-10.7,11.7,18.11,18.11,0,0,0-1.2,5.6,20.77,20.77,0,0,0,13.7,21.1Z"/><path class="cls-4" d="M1031.9,543.8c-1.8-9.1,6-17.2,13.6-22.4s16.6-10.4,19.2-19.3c3.8-12.8-7.4-24.5-16.1-34.6a120.28,120.28,0,0,1-16.5-24.6c-1.8-3.5-3.5-7.2-4-11.2-.7-5.7,1.1-11.3,3-16.7,6.1-18,12.7-35.9,19.6-53.6m-43,55.4a20.82,20.82,0,0,0,14.3-39.1,21.4,21.4,0,0,0-11.5-.8l.5,10.7-5.1-9.2a20.84,20.84,0,0,0-10.7,11.7,18.11,18.11,0,0,0-1.2,5.6,21.05,21.05,0,0,0,13.7,21.1Z"/><path class="cls-2" d="M1029.4,357.6a20.84,20.84,0,0,1,15-13.2l1.7,10.2,3.2-10.7a20.8,20.8,0,1,1-21.1,20.5,19.89,19.89,0,0,1,1.2-6.8Z"/><path class="cls-4" d="M1030.5,353.9a20.84,20.84,0,0,1,15-13.2l1.7,10.2,3.2-10.7a20.8,20.8,0,1,1-21.1,20.5,22.62,22.62,0,0,1,1.2-6.8Z"/><path class="cls-2" d="M1045,467.6a20.87,20.87,0,0,0,18.5-37.1l-2.4,8.2-1.7-10.3h-.1a20.86,20.86,0,0,0-14.3,39.2Z"/><path class="cls-4" d="M1046,463.9a20.87,20.87,0,0,0,18.5-37.1l-2.4,8.2-1.7-10.3h-.1a20.86,20.86,0,0,0-14.3,39.2Z"/><path class="cls-2" d="M1023.3,502.2a20.81,20.81,0,1,0,16.9-24.1,21.05,21.05,0,0,0-12.9,7.8l9.3,14-12.7-7.4a21.14,21.14,0,0,0-.6,9.7Z"/><path class="cls-4" d="M1024.2,499.4a20.81,20.81,0,1,0,16.9-24.1,21.05,21.05,0,0,0-12.9,7.8l9.3,14-12.7-7.4a19.94,19.94,0,0,0-.6,9.7Z"/><path class="cls-2" d="M9,470.2a13.67,13.67,0,1,0,9.3-25.7,12.81,12.81,0,0,0-7.5-.5l.3,7-3.3-6a13.28,13.28,0,0,0-7,7.7,15.25,15.25,0,0,0-.8,3.7A13.69,13.69,0,0,0,9,470.2Z"/><path class="cls-4" d="M25.5,551.9c-1.2-6,3.9-11.3,8.9-14.7s10.9-6.8,12.6-12.7c2.5-8.4-4.9-16.1-10.6-22.8a84.38,84.38,0,0,1-10.9-16.1,22,22,0,0,1-2.6-7.3c-.5-3.7.7-7.4,2-11,4-11.8,8.3-23.6,12.9-35.2M9.6,468.4a13.67,13.67,0,1,0,9.3-25.7,12.81,12.81,0,0,0-7.5-.5l.3,7-3.3-6a13.28,13.28,0,0,0-7,7.7,15.25,15.25,0,0,0-.8,3.7A13.57,13.57,0,0,0,9.6,468.4Z"/><path class="cls-2" d="M23.8,429.5a13.85,13.85,0,0,1,9.8-8.7l1.1,6.7,2.1-7A13.7,13.7,0,1,1,23,434,14.23,14.23,0,0,1,23.8,429.5Z"/><path class="cls-4" d="M24.6,427.1a13.85,13.85,0,0,1,9.8-8.7l1.1,6.7,2.1-7a13.7,13.7,0,1,1-13.9,13.5A14.41,14.41,0,0,1,24.6,427.1Z"/><path class="cls-2" d="M34.1,501.8a13.66,13.66,0,0,0,12.1-24.3l-1.6,5.4-1.1-6.8a13.68,13.68,0,0,0-9.4,25.7Z"/><path class="cls-4" d="M34.7,499.4a13.66,13.66,0,0,0,12.1-24.3l-1.6,5.4-1.1-6.8a13.68,13.68,0,0,0-9.4,25.7Z"/><path class="cls-2" d="M19.8,524.5a13.56,13.56,0,1,0,2.6-10.7l6.1,9.2-8.3-4.9A13.92,13.92,0,0,0,19.8,524.5Z"/><path class="cls-4" d="M20.4,522.7A13.56,13.56,0,1,0,23,512l6.1,9.2-8.3-4.9A12.69,12.69,0,0,0,20.4,522.7Z"/><ellipse class="cls-7" cx="480.9" cy="319.1" rx="17" ry="22"/><ellipse class="cls-7" cx="573.4" cy="319.6" rx="17" ry="22"/><path class="cls-7" d="M560.4,384.6c0,9.9-13.9,18-31,18s-31-8.1-31-18c0-8.6,10.4-15.8,24.3-17.6a49.22,49.22,0,0,1,6.7-.4,51.69,51.69,0,0,1,11.1,1.2C552.2,370.4,560.4,377,560.4,384.6Z"/><ellipse class="cls-4" cx="484.9" cy="314.1" rx="17" ry="22"/><ellipse class="cls-4" cx="577.4" cy="314.6" rx="17" ry="22"/><ellipse class="cls-4" cx="533.4" cy="379.6" rx="31" ry="18"/><path class="cls-8" d="M540.9,369.3a5.13,5.13,0,0,1-1.3,3.4,4.31,4.31,0,0,1-3.2,1.4h-10a4.61,4.61,0,0,1-4.5-4.8,5,5,0,0,1,.8-2.7,49.13,49.13,0,0,1,6.7-.5,46.15,46.15,0,0,1,11.1,1.3,4.33,4.33,0,0,1,.4,1.9Z"/><circle class="cls-8" cx="484.9" cy="308.1" r="5"/><circle class="cls-8" cx="577.9" cy="308.1" r="5"/><circle class="cls-9" cx="582.9" cy="355.1" r="5"/><circle class="cls-9" cx="460.9" cy="355.1" r="5"/><path class="cls-10" d="M422.76,530.47c2.21,8.66,11.42,14.24,11.42,14.24s-4.9-1.27-6.35.94-.39,5.94,4.1,5.63,9.5-1.77,6.86-5.09-6.12-11.6-6.91-18.57C431.88,527.62,420.45,521.71,422.76,530.47Z"/><path class="cls-11" d="M380.66,550.56a17.21,17.21,0,0,1,1.94,8.67c-.08,4.62-3.12,10.36-7.42,9.14-5.38-1.52-4.95-5.25-4.19-7a10.41,10.41,0,0,0,1.1-4.79,6.26,6.26,0,0,0-.75-2.63Z"/><path class="cls-12" d="M377.58,551.68a10.67,10.67,0,0,1,1.27,5.3c0,2.4-.81,5.09-1.81,5s.65-2.89.7-5.22a10.32,10.32,0,0,0-.95-4.76Z"/><path class="cls-10" d="M357,547.66a39,39,0,0,0-2.62,8c-.56,3.44-1.23,6.69-.67,7.27s8.34,1.69,9.29,5.85-2.8,8.46-4.87,7.73-4.41-7-5.25-7,.5,5.59-1.38,6-8,.91-9.6-3.17,3.72-5.35,2.79-6.63-6.81,1.35-8.64-1.76-1.58-6.62,1.86-8.25,9.88,5.65,10.14,5.24-.31-2.26.84-6.82,4.6-9.85,4.6-9.85Z"/><path class="cls-10" d="M399.79,536.42s13.06,28,14.57,27.48,5.51-4.38,8.06-4,6.49,4.19,5.23,7-9,.88-9,3.31,5.66,4.42,4.9,8.08-6.6,7.21-10.3,4.88-1.59-7.88-3.31-9-4.12,6.54-7.19,5.12-5.31-5.24-3.62-8.48,8-3.4,8.11-3.85-11.09-28.62-11.09-28.62Z"/><path class="cls-10" d="M433.91,500.07a55.45,55.45,0,0,1,15.57.93c5.84,1.18,11.09,4.35,12.35,3.43s-.29-4.56,3.11-7.24,9.37-.65,10.63,2.55-7.46,6.11-7.19,7.86,6.73-.57,9.67,3.52a5,5,0,0,1-5,7.91c-4-.8-4.31-6-5.92-5.64s2.74,8.78-1.47,10.27-7.62-.49-8.85-4.54,4.05-5.89,3.16-7.48-4.89-3-11.19-5A37.27,37.27,0,0,0,434,505.28Z"/><path class="cls-13" d="M421.58,477.65s10-1.83,15.86-8.45,8.15-12.95,7.28-13.5-6.54,3.29-7.13,2.57,5.56-3.9,5.36-13.16-5.86-12.3-6.51-12.36-.88,6.86-2.76,7.39-.57-7.08-8.93-9.92-13.6.56-13.62,1.41,8,2.83,7.82,3.72-7-1.32-11.86,6-1.81,12.46,2.63,16.63,12.82,3.93,12.82,2.72-4.3-2.58-4.34-6.34,6-6.4,9.78-3.14c3.37,2.92,3.6,7,.76,11.2S415.9,473,415.9,473Z"/><path class="cls-14" d="M356.89,503.42l13.89-9.31s.78-11.92,5.14-18.84c5.28-8.39,16.24-17.86,32.88-9.11,16.86,8.87,26.29,21.54,26.43,38.49.14,16.36-9.7,34.21-23.66,43.68a30.18,30.18,0,0,1-30.74,2.42s-8.95,7-21.19,1.14c-19.48-9.4-24-35.54-24-35.54l14.8-15.55Z"/><path class="cls-15" d="M393.24,517s24.95,4.68,27.75,8.17c2.09,2.59,6.75,18,1.42,24.14-3.83,4.4-11.32,1.16-12.44-3.35-1.31-5.3,5.74-13.37,4.56-15.73C413,527.16,391.37,520,391.37,520Z"/><path d="M372.89,493.19S363.78,468.9,360,466.66c-5.05-3-17.4,1.27-19.42,5.75a5.89,5.89,0,0,0,5.05,8.55c3.71-.06,10.32-7.74,12.27-6.85s12.84,19.72,12.84,19.72Z"/><path class="cls-10" d="M384.23,525.27s10.34-2.79,15.2-12.65c5.84-11.83-1.43-20.53-1.43-20.53s.32,7.09-3.22,11c-4.69,5.13-8.67,3.38-8.67,3.38s5.54-8.14,3.29-14.35c-3.4-9.37-10.28-8.65-10.28-8.65s4.76,4.83,3.72,8.77A8.24,8.24,0,0,1,379,496.9s-.43-7.88-4.39-11.09c-6-4.87-10.28-.44-10.28-.44a5.32,5.32,0,0,1,5.37,4.05,7.88,7.88,0,0,1-.29,5.6l-4.25,5Z"/><path class="cls-14" d="M380.53,526.55a7.89,7.89,0,0,0,3.7-1.28c3.2-1.85,5.34-9.73.88-18s-9.58-3.56-11.95-4.19,1-7.59-4.45-9.34c-4.49-1.45-6.61,4.85-6.61,4.85Z"/><path class="cls-16" d="M357.4,499.94a7.15,7.15,0,1,0,9.86-2.24A7.15,7.15,0,0,0,357.4,499.94Z"/><path d="M361.94,502.06a1.6,1.6,0,1,0,2.2-.5A1.6,1.6,0,0,0,361.94,502.06Z"/><path class="cls-8" d="M361.7,511.39a11.17,11.17,0,1,0,15.41-3.5A11.18,11.18,0,0,0,361.7,511.39Z"/><path d="M368.79,514.71a2.5,2.5,0,0,0,4.23,2.66,2.5,2.5,0,1,0-4.23-2.66Z"/><path class="cls-14" d="M356.34,503.19s-.35-1.35.28-1.3c2.72.25,11.78,15.66,11.54,20.22-.33,6.2-4.29,6.82-4.29,6.82a34.49,34.49,0,0,1-8.44-11.39C352.5,510.75,356.34,503.19,356.34,503.19Z"/><path d="M323,491.88a16.72,16.72,0,1,0,23-5.24A16.71,16.71,0,0,0,323,491.88Z"/><path class="cls-15" d="M338.74,488.35c-1.25,1.26.21,4.73,3.26,7.75s6.54,4.45,7.79,3.18-.22-4.73-3.27-7.75S340,487.09,338.74,488.35Z"/><path d="M380.83,550.75a44.88,44.88,0,0,0,6-7c4-6.49,2.34-9.51,2.34-9.51s2.21,3.55-1.7,10.47c-1.29,2.29-5.53,6.54-5.53,6.54Z"/><path class="cls-17" d="M438.67,520.65a4.14,4.14,0,0,0-1.9-.5.67.67,0,0,1-.6-.7c0-.3.4-.6.7-.6a5,5,0,0,1,2.4.6.69.69,0,0,1,.3.9.62.62,0,0,1-.6.4A.37.37,0,0,1,438.67,520.65Z"/><path class="cls-17" d="M449.37,527.15a20.68,20.68,0,0,1-2.5-1.5c-.8-.5-1.5-1-2.3-1.4a.67.67,0,1,1,.6-1.2c.8.4,1.6,1,2.4,1.5s1.6,1,2.4,1.4a.69.69,0,0,1,.3.9.62.62,0,0,1-.6.4C449.57,527.25,449.47,527.15,449.37,527.15Z"/><path class="cls-17" d="M458.07,536.35c-.6-.7-1.4-1.5-2.1-2.3l-.8-.8a.64.64,0,1,1,.9-.9l.8.8c.7.8,1.5,1.6,2.2,2.4a.63.63,0,0,1-.1.9.6.6,0,0,1-.4.1C458.37,536.55,458.17,536.55,458.07,536.35Z"/><path class="cls-17" d="M464.67,547.75l-4-6.7a.65.65,0,1,1,1.1-.7l4,6.7a.65.65,0,0,1-.2.9.37.37,0,0,1-.3.1A.6.6,0,0,1,464.67,547.75Z"/><path class="cls-17" d="M466.37,551.85c-.5-1-1-2-1.4-3a.63.63,0,0,1,1.2-.4,23.76,23.76,0,0,0,1.3,2.9.66.66,0,0,1-.3.9.37.37,0,0,1-.3.1C466.57,552.35,466.37,552.25,466.37,551.85Z"/><path class="cls-17" d="M469.27,558a1.59,1.59,0,0,1-.4-1.2.65.65,0,1,1,1.3.1c0,.2,0,.3.1.4a.63.63,0,0,1-.1.9.6.6,0,0,1-.4.1A.55.55,0,0,1,469.27,558Z"/><path class="cls-17" d="M472.47,568.85a6.55,6.55,0,0,1-.3-2.8c0-.4.3-.6.7-.6a.56.56,0,0,1,.6.7,4.71,4.71,0,0,0,.2,2.1.75.75,0,0,1-.4.9.37.37,0,0,1-.3.1C472.77,569.25,472.47,569.05,472.47,568.85Z"/><path class="cls-17" d="M477.37,560.15a.62.62,0,0,1-.5-.8c.8-3.1,6.1-6.6,8.9-6.9a.65.65,0,0,1,.1,1.3c-2.5.2-7.1,3.5-7.7,5.9a.56.56,0,0,1-.6.5Z"/><path class="cls-17" d="M478.67,568.25a.63.63,0,0,1-.1-.9c2.7-3.2,11.2-6,15.2-6.1a.65.65,0,0,1,.1,1.3c-3.7.1-11.7,2.7-14.2,5.7a.76.76,0,0,1-.5.2C479,568.45,478.87,568.35,478.67,568.25Z"/><path class="cls-17" d="M468.17,569.75c-3.8-2.4-6.4-3.8-10.5-4.5a.67.67,0,0,1,.3-1.3c4.2.7,7.1,2.2,10.9,4.6a.65.65,0,0,1,.2.9.86.86,0,0,1-.6.3Z"/><path class="cls-17" d="M466.87,565.75a5.68,5.68,0,0,0-2.9-1.9.63.63,0,0,1,.4-1.2,6.41,6.41,0,0,1,3.6,2.4.65.65,0,0,1-.2.9.6.6,0,0,1-.4.1A.55.55,0,0,1,466.87,565.75Z"/></svg>