<svg id="Layer_1" data-name="Layer 1" xmlns="http://www.w3.org/2000/svg" viewBox="0 0 144 144"><defs><style>.cls-1{fill:#fff;}.cls-2{fill:#fdfdfd;}.cls-3{fill:#fbfbfb;}.cls-4{fill:#f9f9f9;}.cls-5{fill:#f7f7f7;}.cls-6{fill:#f5f5f5;}.cls-7{fill:#f3f3f3;}.cls-8{fill:#f1f1f1;}.cls-9{fill:#efefef;}.cls-10{fill:#ededed;}.cls-11{fill:#ebebeb;}.cls-12{fill:#e9e9e9;}.cls-13{fill:#e7e7e7;}.cls-14{fill:#e5e5e5;}.cls-15{fill:#e3e3e3;}.cls-16{fill:#e1e1e1;}.cls-17{fill:#dfdfdf;}.cls-18{fill:#ddd;}.cls-19{fill:#dbdbdb;}.cls-20{fill:#d9d9d9;}.cls-21{fill:#d7d7d7;}.cls-22{fill:#d5d5d5;}.cls-23{fill:#d3d3d3;}.cls-24{fill:#d1d1d1;}.cls-25{fill:#cfcfcf;}.cls-26{fill:#cdcdcd;}.cls-27{fill:#cbcbcb;}.cls-28{fill:#c9c9c9;}.cls-29{fill:#c7c7c7;}.cls-30{fill:#c5c5c5;}.cls-31{fill:#c3c3c3;}.cls-32{fill:#c1c1c1;}.cls-33{fill:#bfbfbf;}.cls-34{fill:#bdbdbd;}.cls-35{fill:#bbb;}.cls-36{fill:#b9b9b9;}.cls-37{fill:#b7b7b7;}.cls-38{fill:#b5b5b5;}.cls-39{fill:#b3b3b3;}.cls-40{fill:#b1b1b1;}.cls-41{fill:#afafaf;}.cls-42{fill:#adadad;}.cls-43{fill:#ababab;}.cls-44{fill:#a9a9a9;}.cls-45{fill:#a7a7a7;}.cls-46{fill:#a5a5a5;}.cls-47{fill:#a3a3a3;}.cls-48{fill:#a1a1a1;}.cls-49{fill:#9f9f9f;}.cls-50{fill:#9d9d9d;}.cls-51{fill:#9b9b9b;}.cls-52{fill:#999;}.cls-53{fill:#b66f29;}.cls-54{fill:#ccc;}.cls-55{fill:#855117;}.cls-56{fill:#f7931e;}.cls-57{fill:#333;}.cls-58{fill:#d9c3a1;}</style></defs><path class="cls-1" d="M120.46,134c0,4-22,7.32-49.24,7.32S22,138,22,134s22.05-7.32,49.25-7.32S120.46,130,120.46,134Z"/><path class="cls-2" d="M119.7,134c0,4-21.71,7.2-48.48,7.2S22.73,138,22.73,134s21.71-7.21,48.49-7.21S119.7,130,119.7,134Z"/><path class="cls-3" d="M118.93,134c0,3.91-21.36,7.09-47.71,7.09S23.5,137.9,23.5,134s21.36-7.09,47.72-7.09S118.93,130.07,118.93,134Z"/><path class="cls-4" d="M118.17,134c0,3.85-21,7-46.95,7s-47-3.13-47-7,21-7,47-7S118.17,130.13,118.17,134Z"/><path class="cls-5" d="M117.41,134c0,3.79-20.68,6.86-46.19,6.86S25,137.78,25,134s20.68-6.87,46.19-6.87S117.41,130.2,117.41,134Z"/><path class="cls-6" d="M116.64,134c0,3.73-20.34,6.75-45.42,6.75s-45.43-3-45.43-6.75,20.34-6.75,45.43-6.75S116.64,130.26,116.64,134Z"/><path class="cls-7" d="M115.88,134c0,3.66-20,6.64-44.66,6.64s-44.67-3-44.67-6.64,20-6.64,44.67-6.64S115.88,130.32,115.88,134Z"/><path class="cls-8" d="M115.11,134c0,3.6-19.65,6.52-43.89,6.52s-43.9-2.92-43.9-6.52,19.65-6.53,43.9-6.53S115.11,130.38,115.11,134Z"/><path class="cls-9" d="M114.35,134c0,3.54-19.31,6.41-43.13,6.41S28.08,137.53,28.08,134s19.31-6.41,43.14-6.41S114.35,130.45,114.35,134Z"/><path class="cls-10" d="M113.59,134c0,3.48-19,6.29-42.37,6.29S28.85,137.47,28.85,134s19-6.3,42.37-6.3S113.59,130.51,113.59,134Z"/><path class="cls-11" d="M112.82,134c0,3.41-18.62,6.18-41.6,6.18S29.61,137.4,29.61,134s18.63-6.19,41.61-6.19S112.82,130.57,112.82,134Z"/><path class="cls-12" d="M112.06,134c0,3.35-18.29,6.07-40.84,6.07S30.37,137.34,30.37,134s18.29-6.07,40.85-6.07S112.06,130.64,112.06,134Z"/><path class="cls-13" d="M111.3,134c0,3.29-18,5.95-40.08,5.95S31.14,137.28,31.14,134s17.94-6,40.08-6S111.3,130.7,111.3,134Z"/><path class="cls-14" d="M110.53,134c0,3.23-17.6,5.84-39.31,5.84S31.9,137.22,31.9,134s17.6-5.85,39.32-5.85S110.53,130.76,110.53,134Z"/><path class="cls-15" d="M109.77,134c0,3.16-17.26,5.73-38.55,5.73S32.66,137.15,32.66,134s17.27-5.73,38.56-5.73S109.77,130.82,109.77,134Z"/><path class="cls-16" d="M109,134c0,3.1-16.91,5.61-37.78,5.61S33.43,137.09,33.43,134s16.92-5.62,37.79-5.62S109,130.89,109,134Z"/><path class="cls-17" d="M108.24,134c0,3-16.58,5.5-37,5.5s-37-2.46-37-5.5,16.58-5.51,37-5.51S108.24,131,108.24,134Z"/><path class="cls-18" d="M107.48,134c0,3-16.24,5.39-36.26,5.39S35,137,35,134s16.23-5.39,36.26-5.39S107.48,131,107.48,134Z"/><path class="cls-19" d="M106.71,134c0,2.91-15.89,5.27-35.49,5.27s-35.5-2.36-35.5-5.27,15.89-5.28,35.5-5.28S106.71,131.07,106.71,134Z"/><path class="cls-20" d="M106,134c0,2.85-15.55,5.16-34.73,5.16S36.48,136.84,36.48,134s15.55-5.17,34.74-5.17S106,131.14,106,134Z"/><path class="cls-21" d="M105.18,134c0,2.79-15.2,5-34,5s-34-2.26-34-5,15.21-5.05,34-5.05S105.18,131.2,105.18,134Z"/><path class="cls-22" d="M104.42,134c0,2.72-14.87,4.93-33.2,4.93S38,136.71,38,134s14.87-4.94,33.21-4.94S104.42,131.26,104.42,134Z"/><path class="cls-23" d="M103.66,134c0,2.66-14.53,4.82-32.44,4.82S38.77,136.65,38.77,134s14.53-4.82,32.45-4.82S103.66,131.32,103.66,134Z"/><path class="cls-24" d="M102.89,134c0,2.6-14.18,4.71-31.67,4.71S39.54,136.59,39.54,134s14.18-4.71,31.68-4.71S102.89,131.39,102.89,134Z"/><path class="cls-25" d="M102.13,134c0,2.54-13.84,4.59-30.91,4.59S40.3,136.53,40.3,134s13.84-4.6,30.92-4.6S102.13,131.45,102.13,134Z"/><path class="cls-26" d="M101.37,134c0,2.47-13.5,4.48-30.15,4.48s-30.15-2-30.15-4.48,13.5-4.48,30.15-4.48S101.37,131.51,101.37,134Z"/><path class="cls-27" d="M100.6,134c0,2.41-13.15,4.36-29.38,4.36S41.83,136.4,41.83,134s13.16-4.37,29.39-4.37S100.6,131.58,100.6,134Z"/><path class="cls-28" d="M99.84,134c0,2.35-12.82,4.25-28.62,4.25s-28.63-1.9-28.63-4.25,12.82-4.26,28.63-4.26S99.84,131.64,99.84,134Z"/><path class="cls-29" d="M99.07,134c0,2.28-12.47,4.14-27.85,4.14S43.36,136.27,43.36,134s12.47-4.14,27.86-4.14S99.07,131.7,99.07,134Z"/><path class="cls-30" d="M98.31,134c0,2.22-12.13,4-27.09,4s-27.1-1.8-27.1-4,12.13-4,27.1-4S98.31,131.76,98.31,134Z"/><path class="cls-31" d="M97.55,134c0,2.16-11.79,3.91-26.33,3.91S44.89,136.15,44.89,134s11.78-3.92,26.33-3.92S97.55,131.83,97.55,134Z"/><path class="cls-32" d="M96.78,134c0,2.1-11.44,3.8-25.56,3.8s-25.57-1.7-25.57-3.8,11.45-3.8,25.57-3.8S96.78,131.89,96.78,134Z"/><path class="cls-33" d="M96,134c0,2-11.11,3.68-24.8,3.68S46.41,136,46.41,134s11.11-3.69,24.81-3.69S96,132,96,134Z"/><path class="cls-34" d="M95.25,134c0,2-10.76,3.57-24,3.57s-24-1.6-24-3.57,10.76-3.58,24-3.58S95.25,132,95.25,134Z"/><path class="cls-35" d="M94.49,134c0,1.91-10.42,3.46-23.27,3.46S47.94,135.9,47.94,134s10.42-3.46,23.28-3.46S94.49,132.08,94.49,134Z"/><path class="cls-36" d="M93.73,134c0,1.85-10.08,3.34-22.51,3.34S48.7,135.84,48.7,134s10.08-3.35,22.52-3.35S93.73,132.14,93.73,134Z"/><path class="cls-37" d="M93,134c0,1.78-9.73,3.23-21.74,3.23S49.47,135.77,49.47,134s9.74-3.24,21.75-3.24S93,132.2,93,134Z"/><path class="cls-38" d="M92.2,134c0,1.72-9.4,3.12-21,3.12s-21-1.4-21-3.12,9.4-3.12,21-3.12S92.2,132.27,92.2,134Z"/><path class="cls-39" d="M91.44,134c0,1.66-9.06,3-20.22,3S51,135.65,51,134s9-3,20.22-3S91.44,132.33,91.44,134Z"/><path class="cls-40" d="M90.67,134c0,1.59-8.71,2.89-19.45,2.89s-19.46-1.3-19.46-2.89,8.71-2.9,19.46-2.9S90.67,132.39,90.67,134Z"/><path class="cls-41" d="M89.91,134c0,1.53-8.37,2.78-18.69,2.78s-18.7-1.25-18.7-2.78,8.37-2.78,18.7-2.78S89.91,132.45,89.91,134Z"/><path class="cls-42" d="M89.14,134c0,1.47-8,2.66-17.92,2.66S53.29,135.46,53.29,134s8-2.67,17.93-2.67S89.14,132.52,89.14,134Z"/><path class="cls-43" d="M88.38,134c0,1.41-7.68,2.55-17.16,2.55S54.05,135.4,54.05,134s7.69-2.55,17.17-2.55S88.38,132.58,88.38,134Z"/><path class="cls-44" d="M87.62,134c0,1.34-7.35,2.44-16.4,2.44s-16.4-1.1-16.4-2.44,7.34-2.44,16.4-2.44S87.62,132.64,87.62,134Z"/><path class="cls-45" d="M86.85,134c0,1.28-7,2.32-15.63,2.32s-15.64-1-15.64-2.32,7-2.33,15.64-2.33S86.85,132.7,86.85,134Z"/><path class="cls-46" d="M86.09,134c0,1.22-6.66,2.21-14.87,2.21s-14.88-1-14.88-2.21,6.66-2.21,14.88-2.21S86.09,132.77,86.09,134Z"/><path class="cls-47" d="M85.32,134c0,1.16-6.31,2.09-14.1,2.09s-14.11-.93-14.11-2.09,6.31-2.1,14.11-2.1S85.32,132.83,85.32,134Z"/><path class="cls-48" d="M84.56,134c0,1.09-6,2-13.34,2s-13.35-.89-13.35-2,6-2,13.35-2S84.56,132.89,84.56,134Z"/><path class="cls-49" d="M83.8,134c0,1-5.64,1.87-12.58,1.87S58.63,135,58.63,134s5.64-1.87,12.59-1.87S83.8,133,83.8,134Z"/><path class="cls-50" d="M83,134c0,1-5.29,1.75-11.81,1.75S59.4,135,59.4,134s5.29-1.76,11.82-1.76S83,133,83,134Z"/><path class="cls-51" d="M82.27,134c0,.9-5,1.64-11,1.64s-11.06-.74-11.06-1.64,5-1.65,11.06-1.65S82.27,133.08,82.27,134Z"/><path class="cls-52" d="M81.51,134c0,.84-4.61,1.53-10.29,1.53s-10.29-.69-10.29-1.53,4.6-1.53,10.29-1.53S81.51,133.14,81.51,134Z"/><path class="cls-53" d="M10,113.22c1.73-6.07,5.57-7.1,6.89-6.68,0,0-4,13.49,5,11.72C33.26,116,41.1,108,41.1,108l.75,2.44S31.35,125,21.77,125.92C12.42,126.86,8.31,119.17,10,113.22Z"/><path d="M49.08,53.91l-2.35-1.35S28.33,29.1,26.94,26.25c-1.62-3.32.41-9.1,3.33-12S38,9.3,39.58,10.65s-.3,5.43-3.08,8.53c-2,2.23-6.39,4.81-6.35,5.51S49.08,53.91,49.08,53.91Z"/><path d="M71,44.38,69.74,42s-3.36-29.63-3-32.79c.37-3.68,5.13-7.53,9.15-8.5S85,.57,85.64,2.56,82.54,7,78.54,8.21c-2.88.85-8,.75-8.29,1.36S71,44.38,71,44.38Z"/><path class="cls-54" d="M84,51a7.76,7.76,0,1,1,7.76-7.76A7.75,7.75,0,0,1,84,51Z"/><path d="M87.73,47.81a2.51,2.51,0,1,1,2.51-2.51A2.51,2.51,0,0,1,87.73,47.81Z"/><path class="cls-55" d="M69.85,108.05,68.54,110l.37,16.69,9.21,3.74s7.24,6.28,9.08,4-6.09-5.58-6.09-5.58,8.26,4.09,9.06.18c.6-2.91-7.22-1.43-7.22-1.43s6.38-1.11,6-3.6c-.48-3.07-7,1.59-7,1.59s-9.59,2.69-9.62-2.35c0-5.85.79-14,.79-14Z"/><path class="cls-53" d="M41.16,113l.7,21,9.21,3.74s4.76,6.76,6.6,4.5-3.61-6.07-3.61-6.07,7,3.81,7.83-.1c.59-2.91-6-1.15-6-1.15s5.59-1.66,5.2-4.16c-.48-3.07-6.25,2.15-6.25,2.15s-9.59,2.69-9.62-2.35c0-5.84.2-18.36.2-18.36Z"/><path class="cls-56" d="M80.5,104.45c9.74-12,3.63-28.07,3.63-28.07,26.1.93,25.06-23.62,25.06-23.62l-5.3-8.2a17.16,17.16,0,0,1-16.48,2.25c-8.67-3.22-16.72-15.72-16.72-15.72s-4.13,4.21-13.38,8.52A84,84,0,0,1,41,45.15a261.46,261.46,0,0,0-2.31,30.72,311.69,311.69,0,0,0,2.53,37.47S69.84,117.56,80.5,104.45Z"/><path d="M110.68,52.77a10,10,0,1,1,10-10A10,10,0,0,1,110.68,52.77Z"/><path class="cls-57" d="M111.86,49.18a7.68,7.68,0,1,1,7.67-7.68A7.68,7.68,0,0,1,111.86,49.18Z"/><path d="M58.49,62.51a.36.36,0,0,1,.26-.34.39.39,0,0,1,.5.21c0,.07,2.67,6.77,8,10.17a18.58,18.58,0,0,0,8.56,2.58.4.4,0,0,1,.39.38.39.39,0,0,1-.4.36,19.3,19.3,0,0,1-9-2.71c-5.54-3.54-8.19-10.24-8.3-10.53a.5.5,0,0,1,0-.12Z"/><path class="cls-1" d="M78.25,60.15a8.2,8.2,0,1,1,8.2-8.2A8.2,8.2,0,0,1,78.25,60.15Z"/><path d="M82.25,56.63A2.65,2.65,0,1,1,84.9,54,2.65,2.65,0,0,1,82.25,56.63Z"/><path class="cls-58" d="M39.85,100.93s26.56-3.6,38.89-4.81c16.11-1.57,34.71,0,34.71,0s-3.13,11.33,5.39,11.49,8.9-5.4,8.43-8.11c-1-5.63-6.75-9.81-6.75-9.81s8.11,2,10.9-.88c3.69-3.74,2.72-13.5-6.07-13.5-10.13,0-10.85,9.4-10.85,9.4a317.61,317.61,0,0,0-38.33,1.45C59.86,88,42.42,90.74,42.42,90.74S38.2,77.48,29.64,78.44c-7.14.81-8.53,6.27-8,9.81.73,4.42,8.68,5.46,8.68,5.46s-7.66,6.34-7.07,12.06c.69,6.54,7.19,10.88,14.31,5.78C44.07,106.91,39.85,100.93,39.85,100.93Z"/><path class="cls-53" d="M43.05,76.11a2.77,2.77,0,0,1,2.5-.75L65.06,95.77s3.94-1.21,5.06,1.28-4.82,2.14-4.82,2.14,3.53,3.89,1.61,5.09S63,101.15,63,101.15s.08,4.79-2.54,4.15c-3.49-.86.37-6.32.37-6.32L42.4,79.21A4.21,4.21,0,0,1,43.05,76.11Z"/><path class="cls-53" d="M97.7,98.75c-1.65.87-6.56-5.46-3.64-6.54S99.36,97.87,97.7,98.75Z"/><path class="cls-53" d="M92.73,100.44c-1.8.51-5.29-6.7-2.21-7.15S94.53,99.93,92.73,100.44Z"/><path class="cls-53" d="M87.7,100.2c-1.86.2-4.1-7.49-1-7.42S89.56,100,87.7,100.2Z"/></svg>