<svg xmlns="http://www.w3.org/2000/svg" xmlns:xlink="http://www.w3.org/1999/xlink" viewBox="0 0 870 138"><defs><style>.cls-1{isolation:isolate;}.cls-2{fill:#86ba90;}.cls-2,.cls-3,.cls-7{stroke:#42210b;}.cls-2,.cls-3{stroke-width:4px;}.cls-3,.cls-6{fill:#9ec8a6;}.cls-4{fill:#ffd7ba;}.cls-5{fill:#42210b;}.cls-14,.cls-7{fill:#67524e;}.cls-7{stroke-width:5px;}.cls-8{fill:#734c00;}.cls-12,.cls-16,.cls-9{mix-blend-mode:multiply;}.cls-9{opacity:0.54;}.cls-10{fill:#bdaa75;}.cls-11{fill:#3b2200;}.cls-12{opacity:0.58;}.cls-13{fill:#85693d;}.cls-15{fill:url(#radial-gradient);}.cls-16{fill:#c9b99d;opacity:0.49;}.cls-17{fill:#891518;}.cls-18{fill:#754c24;}.cls-19{fill:#b66f29;}.cls-20{fill:#333;}.cls-21{fill:#f7931e;}.cls-22{fill:#ccc;}.cls-23{fill:#fff;}.cls-24{fill:#de2321;}.cls-25{fill:#b31a17;}.cls-26{fill:#1a1a1a;}</style><radialGradient id="radial-gradient" cx="503.46" cy="49.65" r="25.57" gradientTransform="matrix(0.99, -0.28, 0.28, 0.99, -0.74, 123.21)" gradientUnits="userSpaceOnUse"><stop offset="0" stop-color="#fff8f0"/><stop offset="1" stop-color="#f0e2d3"/></radialGradient></defs><g class="cls-1"><g id="Layer_1" data-name="Layer 1"><path class="cls-2" d="M18.65,18.68h16.7v20.9h17.5v16.6H35.35v13.4c0,8,6.5,14.2,15,14.2h2.5v16.6h-2.5c-17,0-31.7-13.3-31.7-30.8V56.18h-8.3V39.58h8.3Z"/><path class="cls-3" d="M109.85,56.18V39.58h16.7v58.3h-16.7v-25h-25v25H68.15V18.68h16.7v37.5Z"/><path class="cls-3" d="M157.65,31.18V41a29.91,29.91,0,0,1,15-3.9h1.7v16.7h-1.7a14.83,14.83,0,0,0-15,14.9v29.2H141V31.18Z"/><path class="cls-3" d="M245.45,68.78a31.65,31.65,0,1,1-31.7-31.7A31.62,31.62,0,0,1,245.45,68.78Zm-46.6,0a15,15,0,0,0,29.9,0,15,15,0,1,0-29.9,0Z"/><path class="cls-3" d="M277,64.28l20.8-47.5,20.8,47.5L332,33.68l15,6.7-28.41,64.7-20.8-47.5L277,105.08l-28.4-64.7,15-6.7Z"/><polygon class="cls-4" points="358.49 106.09 353.77 123.61 340.07 119.91 353.18 71.1 370.4 98.35 378.75 67.22 405.76 109.94 393.78 117.54 384.06 102.2 375.71 133.35 358.49 106.09"/><path class="cls-5" d="M379.5,72.14,403,109.32l-8.6,5.46-11.08-17.5L375,128.42l-17.21-27.26-5.39,20-9.84-2.66L353.93,76l17.22,27.25,8.35-31.14M378,62.29l-2.36,8.82-6,22.31L357.31,73.89l-4.87-7.72L350.07,75l-11.41,42.48-1,3.85,3.86,1,9.83,2.66,3.87,1,1-3.87,3-11.19,12.34,19.54,4.88,7.73,2.37-8.83,6-22.32,6.2,9.79,2.14,3.38,3.38-2.14,8.6-5.46,3.38-2.14-2.14-3.38L382.88,70,378,62.29Z"/><path class="cls-4" d="M426.13,114.88a21.62,21.62,0,0,1-20.42-14.59L404,95.36a21.68,21.68,0,0,1,41-14.17l2.87,8.29-26.5,9.17a7.5,7.5,0,0,0,4.92,1.88h0a6.9,6.9,0,0,0,2.3-.39L431.91,99l4.69,13.53-3.36,1.17A21.93,21.93,0,0,1,426.13,114.88ZM424.38,81a7,7,0,0,0-2.26.38,7.39,7.39,0,0,0-3.89,3.16l8.79-3A7.08,7.08,0,0,0,424.38,81Z"/><path class="cls-5" d="M424.51,68.63a19.61,19.61,0,0,1,18.57,13.21l2.21,6.41L418,97.68a9.44,9.44,0,0,0,8.23,4.85,8.88,8.88,0,0,0,2.95-.5l1.47-.51,3.37,9.76-1.47.51a20,20,0,0,1-6.45,1.09A19.6,19.6,0,0,1,407.6,99.64l-1.71-4.93a19.6,19.6,0,0,1,12.14-25,19.86,19.86,0,0,1,6.48-1.09m-9.28,19,16.15-5.59a9.73,9.73,0,0,0-7-3.11,9,9,0,0,0-2.91.49,9.32,9.32,0,0,0-6.24,8.21m9.28-23v0h0A23.67,23.67,0,0,0,402.11,96l1.71,4.94a23.6,23.6,0,0,0,30.07,14.62l.19-.07,1.28-.44,3.78-1.31L437.83,110l-3.37-9.75-1.23-3.57L446.6,92l3.78-1.31-1.31-3.78-2.21-6.4a23.65,23.65,0,0,0-22.35-15.91Z"/><path class="cls-6" d="M485.78,105.17l1-4.28a17.66,17.66,0,0,1-2.06.12,19.54,19.54,0,0,1-4.53-.54,20,20,0,1,1,9.17-38.87,19.08,19.08,0,0,1,6.09,2.57l1-4.34,13.13,3.1-10.7,45.34Zm-1-30.63a6.49,6.49,0,0,0-1.48,12.81,6.75,6.75,0,0,0,1.54.18,6.43,6.43,0,0,0,6.29-5,6.53,6.53,0,0,0-6.35-8Z"/><path class="cls-5" d="M498,62.24l9.23,2.18-9.78,41.44-9.23-2.17,1.27-5.36a17,17,0,0,1-4.73.68,17.53,17.53,0,0,1-4.07-.49,18,18,0,0,1,4.12-35.46,18.32,18.32,0,0,1,4.13.48,17,17,0,0,1,7.78,4.11L498,62.24M484.83,89.53a8.49,8.49,0,0,0,1.9-16.76,8.74,8.74,0,0,0-2-.23,8.5,8.5,0,0,0-1.93,16.76,9,9,0,0,0,2,.23M495,57.43l-.88,3.71a21.74,21.74,0,0,0-4.29-1.49,22.12,22.12,0,0,0-5.05-.59,22,22,0,0,0-.54,43.94l-.86,3.66,3.89.92,9.23,2.18,3.89.91.92-3.89,9.78-41.44.92-3.9-3.89-.92-9.23-2.17L495,57.43Zm-10.17,28.1a4.5,4.5,0,0,1-.06-9,4.7,4.7,0,0,1,1.05.12,4.52,4.52,0,0,1,3.35,5.44,4.43,4.43,0,0,1-4.34,3.43Z"/><path class="cls-7" d="M564.18,45.08a31.65,31.65,0,1,1,0,63.3,29.91,29.91,0,0,1-15-3.9v9.7H532.47V26.68h16.71V49A29.91,29.91,0,0,1,564.18,45.08Zm-15,31.7a15,15,0,1,0,15-15A14.9,14.9,0,0,0,549.18,76.78Z"/><path class="cls-7" d="M669.68,76.78A31.66,31.66,0,1,1,638,45.08,31.62,31.62,0,0,1,669.68,76.78Zm-46.6,0a15,15,0,0,0,29.9,0,15,15,0,1,0-29.9,0Z"/><path class="cls-7" d="M740.58,124.79l-41.7-50.31v31.4H682.17V28.68L723.88,79V47.58h16.7Z"/><path class="cls-7" d="M784.68,100.08h2.5v16.6h-2.5a31.55,31.55,0,0,1-31.61-31.6v-8.4a31.66,31.66,0,0,1,63.31,0v10.9H770A15.09,15.09,0,0,0,784.68,100.08Zm.1-38.4a15,15,0,0,0-13.8,9.2h27.5A15.15,15.15,0,0,0,784.78,61.68Z"/><path class="cls-7" d="M844.18,110.08a10,10,0,1,1,10-10A10,10,0,0,1,844.18,110.08Zm-8.31-83.4h16.61v58.4H835.87Z"/><path class="cls-8" d="M633.59,40.23c6.57,0,19.33.12,26.59,10.84,7.67,11.34,8.74,26.19,4.46,38.53-3,8.57-13.53,14.73-25.39,14.73a34.3,34.3,0,0,1-15.86-3.89c-17-8.84-18.68-25.19-15.47-37.69s12.54-22.52,25.22-22.52Zm0-.86h-.45c-12.21,0-22.43,9.08-26,23.15-1.31,5.08-2.34,12.79.18,20.7s7.76,13.82,15.72,18a35.26,35.26,0,0,0,16.25,4c12.29,0,23.07-6.29,26.2-15.3,4.6-13.27,2.85-28.32-4.57-39.29-7.59-11.22-20.9-11.22-27.29-11.22Z"/><g class="cls-9"><path class="cls-10" d="M660.18,51.07c-6.54-9.65-17.53-10.71-24.46-10.83,6.12.41,14.12,2.12,19.16,9.29,6.93,9.84,7.9,22.72,4,33.43S637,100,621.68,92.37c-10.24-5.13-14.32-13.18-15-21.19-.5,10.71,3.41,22.31,16.75,29.26,17,8.84,37,1.5,41.25-10.84S667.85,62.41,660.18,51.07Z"/></g><g class="cls-9"><path class="cls-10" d="M647.68,53.29a16.63,16.63,0,0,0,9.56-5.74c-7.59-7.42-18.45-7.32-24.1-7.32a22.94,22.94,0,0,0-14.59,5.21C623.57,50,635.62,56.07,647.68,53.29Z"/></g><path class="cls-11" d="M652.85,50.82A8,8,0,0,0,648,59.93c.72,2.86,3.25,4,4.65,2.68,2.49-2.32-2-3.4-2-3.4s.91-3.8,2.86-4.1c3.39-.54,4.11,2,5.71,3.57s4.47,1.25,4.11-1.07S660.6,47.92,652.85,50.82Z"/><g class="cls-12"><path class="cls-13" d="M612.9,51.61a35.39,35.39,0,0,0-5,11.14,42.2,42.2,0,0,0-1.23,7.59c5.2,1.34,12.12-3.09,12.24-9.7S616.29,52,612.9,51.61Z"/></g><path class="cls-14" d="M637.64,107.4a34,34,0,1,1,34.07-34A34,34,0,0,1,637.64,107.4Zm0-47.16a13.14,13.14,0,0,0-13.08,13.18A12.94,12.94,0,0,0,637.64,86.5a13.13,13.13,0,1,0,0-26.26Z"/><path class="cls-5" d="M637.64,41.34a32,32,0,1,1-32,32.08,32.09,32.09,0,0,1,32-32.08m0,47.16a15.13,15.13,0,1,0-15.08-15.08A15.07,15.07,0,0,0,637.64,88.5m0-51.16a36,36,0,1,0,36.07,36.08,36.07,36.07,0,0,0-36.07-36.08Zm0,47.16a11.13,11.13,0,0,1,0-22.26,11.18,11.18,0,0,1,11.17,11.18A11,11,0,0,1,637.64,84.5Z"/><path class="cls-15" d="M495.64,54.09a10.28,10.28,0,0,1-2.37-.29c-3.89-.89-6.21-2.52-6.89-4.85-.94-3.26,1.62-6.89,3-8.52-2.11,0-6.73-.41-8.6-3.26-1.12-1.72-1.08-4,.13-6.81,1.49-3.44,3.86-5.18,7.06-5.18,4.12,0,8.27,3,9.34,3.78l21.77-11.24c-.86-1.37-3-5.34-1.53-8.51,1.11-2.34,4-3.67,8.45-3.94.43,0,.84,0,1.23,0,3.25,0,5.36.91,6.26,2.7,1.58,3.16-1.15,8.12-2.64,10.43a17.52,17.52,0,0,1,4.76-.77,6.34,6.34,0,0,1,5.1,2c1.3,1.54,1.7,3.94,1.17,7.13-1,6-4.16,7.32-6.64,7.32-3.48,0-7.09-2.41-8.05-3.09l-25,11c.19,1.54.68,7.16-1.94,10.23a5.76,5.76,0,0,1-4.62,2Z"/><path class="cls-5" d="M527.21,5.73c12.49,0,2.36,13.58,2.36,13.58a18.45,18.45,0,0,1,6-1.22c3.46,0,6.92,1.61,5.78,8.51-.88,5.33-3.44,6.9-6.15,6.9-3.85,0-8-3.16-8-3.16L501.65,41.56s1.93,12-6,12a10.11,10.11,0,0,1-2.26-.27c-13.16-3-2.88-13.42-2.88-13.42s-.35,0-.93,0c-3,0-12-.7-8.22-9.37,1.59-3.69,4.07-4.88,6.6-4.88,4.56,0,9.29,3.88,9.29,3.88l22.55-11.65S511.7,6.64,526,5.77c.42,0,.82,0,1.2,0m0-1c-.4,0-.82,0-1.26,0-4.69.29-7.68,1.71-8.88,4.22-1.46,3.08.28,6.8,1.29,8.53l-21,10.86c-1.41-1-5.4-3.7-9.39-3.7-2.35,0-5.56.95-7.52,5.48-1.28,3-1.31,5.42-.09,7.28,1.72,2.61,5.38,3.31,8,3.46-1.44,1.92-3.33,5.18-2.46,8.19.73,2.51,3.17,4.26,7.26,5.2a11.17,11.17,0,0,0,2.48.3,6.26,6.26,0,0,0,5-2.17c2.56-3,2.31-8.27,2.1-10.25l24.38-10.69c1.25.87,4.72,3,8.1,3,2.68,0,6.08-1.35,7.14-7.74.55-3.34.11-5.88-1.29-7.53a6.81,6.81,0,0,0-5.48-2.14,16.59,16.59,0,0,0-3.67.46c1.56-2.64,3.48-6.88,2-9.84-1-2-3.24-3-6.7-3Z"/><path class="cls-16" d="M527.1,16S534.49-.4,520.7,3.54a19,19,0,0,0-1.8.6c5.77,1.47,11.1,6.13,7.26,11.93,4.73,1.65,7,5.66,3.36,9.47-2.95,3.12-8.5,2-12.15,2.22-3.16.2-16.5,10.53-17.93,13.65-2.71,5.91,7.77,7.71-4.52,15a13.93,13.93,0,0,0,4.17.58c10.82.09,5.54-13.27,5.54-13.27l22.56-16.47s13.71,6.37,13-6.69S527.1,16,527.1,16Z"/><path class="cls-17" d="M432.68,52.57a4.91,4.91,0,0,0-.67-2.41c-1.07-1.8-21.67-11.23-21.67-11.23l-2.76,6,16,11.68,8.24-2.47Z"/><path class="cls-18" d="M406.06,62.73a20,20,0,0,1,2.19,4.08c.62,1.85.21,3.94.59,3.94,1.05,0,1.48-3,4.09-3.63,1.95-.44,3.35,1,3.92,2.89s.19,2.65-.36,2.86a1.3,1.3,0,0,1-1.12-.24s0,1-.83,1.17-1.59-.75-1.59-.75-.19,1.29-1.25,1.53-2-1.4-2-1.4a4.93,4.93,0,0,1-1.41,1.46,2,2,0,0,1-2.12-.68c-.32-.54.16-2.6.06-4.45s-2-6.25-2-6.25Z"/><path class="cls-18" d="M423.44,56.7a19.82,19.82,0,0,1,2.19,4.07c.62,1.86.21,3.95.59,3.94,1,0,1.48-3,4.09-3.62,1.95-.44,3.35,1,3.92,2.89s.19,2.65-.36,2.86a1.32,1.32,0,0,1-1.12-.25s0,1-.83,1.17-1.59-.74-1.59-.74-.19,1.29-1.25,1.53-2-1.41-2-1.41a5,5,0,0,1-1.41,1.47,2,2,0,0,1-2.12-.68c-.32-.55.16-2.6.06-4.45s-2-6.25-2-6.25Z"/><path class="cls-19" d="M398.84,64.74a25.56,25.56,0,0,1,2.78,5.17c.8,2.36.27,5,.76,5,1.33,0,1.88-3.85,5.2-4.6,2.48-.56,4.26,1.28,5,3.67s.23,3.37-.47,3.63a1.63,1.63,0,0,1-1.42-.3s0,1.23-1.06,1.48-2-1-2-1-.24,1.65-1.6,2S403.48,78,403.48,78a6.34,6.34,0,0,1-1.79,1.86A2.58,2.58,0,0,1,399,79c-.4-.7.21-3.31.08-5.66s-2.58-8-2.58-8Z"/><path class="cls-20" d="M406.11,25.2s-6.42-10.6-6.8-12.46,8.24,3.08,9.73.07-1.75-5.12-6.15-5.44-7.72.51-7.92,1.82,10.49,17,10.49,17Z"/><path d="M416.7,19.27s-.61-12.38-.06-14.19,5.78,6.62,8.53,4.68.89-5.34-2.83-7.71-7-3.22-7.84-2.16,1.15,20,1.15,20Z"/><path class="cls-18" d="M408.87,72.84a5.15,5.15,0,0,1,1.63,2.22,24.73,24.73,0,0,1,.61,2.5l-.43-.24a14.93,14.93,0,0,0-.59-2.14A14.5,14.5,0,0,0,408.87,72.84Z"/><path class="cls-18" d="M408,78.22a3.79,3.79,0,0,0-.42-2.34,4.56,4.56,0,0,0-1.4-1.89,22.48,22.48,0,0,1,1,2.06,7.64,7.64,0,0,1,.42,1.8Z"/><path class="cls-18" d="M403.76,78.45a4,4,0,0,0-.09-1.31,1.64,1.64,0,0,0-.52-.92,4.46,4.46,0,0,1,.33,1,3.94,3.94,0,0,1,0,.83Z"/><path class="cls-19" d="M418.24,59.35A25.27,25.27,0,0,1,421,64.53c.79,2.36.27,5,.76,5,1.32,0,1.88-3.85,5.2-4.6,2.47-.57,4.25,1.28,5,3.67s.23,3.37-.46,3.63a1.62,1.62,0,0,1-1.42-.31s0,1.24-1.06,1.49-2-1-2-1-.24,1.65-1.59,2-2.53-1.79-2.53-1.79a6.42,6.42,0,0,1-1.8,1.87,1.78,1.78,0,0,1-2.42-.93c-.28-1-.07-3.25-.19-5.6S415.9,60,415.9,60Z"/><path class="cls-18" d="M428.28,67.46a5.15,5.15,0,0,1,1.63,2.22c.34,1.1.61,2.5.61,2.5l-.43-.25a16.23,16.23,0,0,0-.6-2.14A14.13,14.13,0,0,0,428.28,67.46Z"/><path class="cls-18" d="M427.38,72.84a3.85,3.85,0,0,0-.41-2.35,4.57,4.57,0,0,0-1.4-1.88s.67,1.2,1,2.06a7.28,7.28,0,0,1,.41,1.8Z"/><path class="cls-18" d="M423.17,73.07a4,4,0,0,0-.09-1.32,1.68,1.68,0,0,0-.53-.91,4,4,0,0,1,.33,1,3.51,3.51,0,0,1,0,.82Z"/><path class="cls-21" d="M387.86,39.49c3.65-.73,8.61-3.58,8.61-3.58s-3.76-.64-3.79-1.75,6.21-1.65,6.1-2.53S392,29.72,392,29.72a6.59,6.59,0,0,1,4-2,7.11,7.11,0,0,1,4.09.34,12,12,0,0,0-3-2.62,31.42,31.42,0,0,0-4.83-2.22,11,11,0,0,1,7.68-.52,16.86,16.86,0,0,1,5.5,3.53s1-6.26,3.67-8.32,5-1,5-1,.83-2.33,2.73-2.79,3.26-.13,4.15.82-.06,1.27-.06,1.27,5,4.22,5.43,4.18.27,1.46.86,1.58,5-3.21,5-3.21S443.32,23.46,443.4,24c.81,4.84-.71,12.11-5,18.43-.69,1-2.64,3.61-11.16,4.5a17.22,17.22,0,0,1-16.85-8,16.18,16.18,0,0,0,1.84,7.13c1.89,3.54,5.17,6,10.46,6.91,5,.86,9.72-1.36,10.18-.23s-5.23,9.72-19.11,13-20.11-.32-25.57-7.55c-5.87-7.77-7.39-16-7.69-16.62l0-1.16C381.3,40.61,384.21,40.23,387.86,39.49Z"/><path class="cls-22" d="M416.12,21.63a5.11,5.11,0,1,0,3.56-6.29A5.12,5.12,0,0,0,416.12,21.63Z"/><path d="M421.46,18.66a1.26,1.26,0,1,0,.88-1.54A1.27,1.27,0,0,0,421.46,18.66Z"/><path class="cls-23" d="M408.66,28.13a6.67,6.67,0,1,0,4.64-8.2A6.68,6.68,0,0,0,408.66,28.13Z"/><path d="M415.63,24.26a1.63,1.63,0,1,0,1.14-2A1.63,1.63,0,0,0,415.63,24.26Z"/><path class="cls-21" d="M426.53,20.46c-1.4-.4-8.59,5.95-9.39,9.25s1,4.36,1,4.36l9.11-12.15S426.92,20.57,426.53,20.46Z"/><path class="cls-24" d="M424.82,53.17s2.86-3.77,6.95-4.53a8.46,8.46,0,0,1,3,0,4.24,4.24,0,0,1,3.78.3,17.52,17.52,0,0,1,6.64,6.93c1.79,3.58,2.35,6.14,1.7,7.49-1.07,2.21-4.07,3.1-6.71,1.83-3.8-1.82-7.45-12.65-7.45-12.65l-3.21,1Z"/><path class="cls-25" d="M435.06,48.54a3.17,3.17,0,0,0-.34.13,10.7,10.7,0,0,1,4.57,4.1,35.3,35.3,0,0,1,3.48,7.07,29.38,29.38,0,0,0-2.93-7.22,13.42,13.42,0,0,0-4.44-4.17Z"/><path d="M433.85,23.08c4.17,3.75,10.1,4,13.24.47s2.32-9.36-1.85-13.12S435.13,6.46,432,10,429.68,19.32,433.85,23.08Z"/><path class="cls-20" d="M440.1,14.59c1.73,1.39,3.85,1.64,4.72.56s.17-3.09-1.57-4.49-3.85-1.64-4.72-.55S438.36,13.2,440.1,14.59Z"/><path class="cls-26" d="M371.28,38.62c-4.24-1.83-5.31-4-4.92-4.87s3.35,1,3.51.78-3.1-3.37-4.34-5.8c-1.74-3.38-.9-5.5-.57-5.59s2.74,4.07,3.05,3.92-.4-3.19.06-5.35,2.18-4.79,2.53-4.27.11,4.46.7,5.06c.44.45,1.62-4,7.06-4.62A8.51,8.51,0,0,1,387.48,26c.51,6.38-4.5,8.4-8.72,7.74-3.73-.57-5.4-4.81-5.08-5.17s1.46,1.2,3,.8c1.12-.29,2.55-1.56,1.11-3.84-1.63-2.57-7-.38-6.39,5.27s8.22,9.43,9,9.62l0,1.16C380.14,41,375,40.21,371.28,38.62Z"/></g></g></svg>