<svg xmlns="http://www.w3.org/2000/svg" xmlns:xlink="http://www.w3.org/1999/xlink" viewBox="0 0 870 138"><defs><style>.cls-1{isolation:isolate;}.cls-2{fill:#86ba90;}.cls-2,.cls-3,.cls-7{stroke:#42210b;}.cls-2,.cls-3{stroke-width:4px;}.cls-3,.cls-6{fill:#9ec8a6;}.cls-4{fill:#ffd7ba;}.cls-5{fill:#42210b;}.cls-15,.cls-7{fill:#67524e;}.cls-7{stroke-width:5px;}.cls-8{fill:#3b2200;}.cls-9{fill:url(#radial-gradient);}.cls-10{fill:#734c00;}.cls-11,.cls-13,.cls-20,.cls-27{mix-blend-mode:multiply;}.cls-11{opacity:0.54;}.cls-12{fill:#bdaa75;}.cls-13{opacity:0.58;}.cls-14{fill:#85693d;}.cls-16{fill:#a35f1a;}.cls-17{fill:url(#New_Gradient_Swatch);}.cls-18{stroke:#705834;stroke-width:0.95px;fill:url(#radial-gradient-2);}.cls-18,.cls-22{stroke-linecap:round;stroke-linejoin:round;}.cls-19{fill:#634b28;}.cls-20{fill:#d4ac76;}.cls-20,.cls-27{opacity:0.49;}.cls-21{fill:#800018;}.cls-22{stroke:#801300;stroke-width:0.93px;fill:url(#linear-gradient);}.cls-23{fill:#875a00;}.cls-24{fill:#801300;}.cls-25{fill:#e8d6be;}.cls-26{fill:url(#radial-gradient-3);}.cls-27{fill:#c9b99d;}</style><radialGradient id="radial-gradient" cx="635.36" cy="-1089.56" r="31.48" gradientTransform="translate(0 1337.51) scale(1 1.17)" gradientUnits="userSpaceOnUse"><stop offset="0" stop-color="#f5b000"/><stop offset="1" stop-color="#e09500"/></radialGradient><radialGradient id="New_Gradient_Swatch" cx="650.09" cy="180.98" r="19.14" gradientTransform="translate(-40.39 41.33) rotate(-16.44)" xlink:href="#radial-gradient"/><radialGradient id="radial-gradient-2" cx="648.31" cy="193.02" r="18.48" gradientTransform="matrix(0.99, -0.29, 0.29, 0.99, -56.99, 22.43)" gradientUnits="userSpaceOnUse"><stop offset="0" stop-color="#f5dfc2"/><stop offset="1" stop-color="#e0c5a8"/></radialGradient><linearGradient id="linear-gradient" x1="651.3" y1="192.7" x2="665.22" y2="192.7" gradientTransform="translate(-40.39 41.33) rotate(-16.44)" gradientUnits="userSpaceOnUse"><stop offset="0" stop-color="#f53327"/><stop offset="0.99" stop-color="#c92020"/></linearGradient><radialGradient id="radial-gradient-3" cx="666.87" cy="32.42" r="15.35" gradientTransform="translate(-10.58 -22.82) scale(1.03 1.03)" gradientUnits="userSpaceOnUse"><stop offset="0" stop-color="#fff8f0"/><stop offset="1" stop-color="#f0e2d3"/></radialGradient></defs><g class="cls-1"><g id="Layer_1" data-name="Layer 1"><path class="cls-2" d="M18.65,18.68h16.7v20.9h17.5v16.6H35.35v13.4c0,8,6.5,14.2,15,14.2h2.5v16.6h-2.5c-17,0-31.7-13.3-31.7-30.8V56.18h-8.3V39.58h8.3Z"/><path class="cls-3" d="M109.85,56.18V39.58h16.7v58.3h-16.7v-25h-25v25H68.15V18.68h16.7v37.5Z"/><path class="cls-3" d="M157.65,31.18V41a29.91,29.91,0,0,1,15-3.9h1.7v16.7h-1.7a14.83,14.83,0,0,0-15,14.9v29.2H141V31.18Z"/><path class="cls-3" d="M245.45,68.78a31.65,31.65,0,1,1-31.7-31.7A31.62,31.62,0,0,1,245.45,68.78Zm-46.6,0a15,15,0,0,0,29.9,0,15,15,0,1,0-29.9,0Z"/><path class="cls-3" d="M277,64.28l20.8-47.5,20.8,47.5L332,33.68l15,6.7-28.41,64.7-20.8-47.5L277,105.08l-28.4-64.7,15-6.7Z"/><polygon class="cls-4" points="358.49 96.09 353.77 113.61 340.07 109.91 353.18 61.1 370.4 88.35 378.75 57.22 405.76 99.94 393.78 107.54 384.06 92.2 375.71 123.35 358.49 96.09"/><path class="cls-5" d="M379.5,62.14,403,99.32l-8.6,5.46-11.08-17.5L375,118.42,357.75,91.16l-5.39,20-9.84-2.66L353.93,66l17.22,27.25,8.35-31.14M378,52.29l-2.36,8.82-6,22.31L357.31,63.89l-4.87-7.72L350.07,65l-11.41,42.48-1,3.85,3.86,1,9.83,2.66,3.87,1,1-3.87,3-11.19,12.34,19.54,4.88,7.73,2.37-8.83,6-22.32,6.2,9.79,2.14,3.38,3.38-2.14,8.6-5.46,3.38-2.14-2.14-3.38L382.88,60,378,52.29Z"/><path class="cls-4" d="M426.13,104.88a21.62,21.62,0,0,1-20.42-14.59L404,85.36a21.68,21.68,0,0,1,41-14.17l2.87,8.29-26.5,9.17a7.5,7.5,0,0,0,4.92,1.88h0a6.9,6.9,0,0,0,2.3-.39L431.91,89l4.69,13.53-3.36,1.17A21.93,21.93,0,0,1,426.13,104.88ZM424.38,71a7,7,0,0,0-2.26.38,7.39,7.39,0,0,0-3.89,3.16l8.79-3A7.08,7.08,0,0,0,424.38,71Z"/><path class="cls-5" d="M424.51,58.63a19.61,19.61,0,0,1,18.57,13.21l2.21,6.41L418,87.68a9.44,9.44,0,0,0,8.23,4.85,8.88,8.88,0,0,0,2.95-.5l1.47-.51,3.37,9.76-1.47.51a20,20,0,0,1-6.45,1.09A19.6,19.6,0,0,1,407.6,89.64l-1.71-4.93a19.6,19.6,0,0,1,12.14-25,19.86,19.86,0,0,1,6.48-1.09m-9.28,19,16.15-5.59a9.73,9.73,0,0,0-7-3.11,9,9,0,0,0-2.91.49,9.32,9.32,0,0,0-6.24,8.21m9.28-23v0h0A23.67,23.67,0,0,0,402.11,86L403.82,91a23.6,23.6,0,0,0,30.07,14.62l.19-.07,1.28-.44,3.78-1.31L437.83,100l-3.37-9.75-1.23-3.57L446.6,82l3.78-1.31-1.31-3.78-2.21-6.4a23.65,23.65,0,0,0-22.35-15.91Z"/><path class="cls-6" d="M485.78,90.17l1-4.28a17.66,17.66,0,0,1-2.06.12,19.54,19.54,0,0,1-4.53-.54,20,20,0,1,1,9.17-38.87,19.08,19.08,0,0,1,6.09,2.57l1-4.34,13.13,3.1-10.7,45.34Zm-1-30.63a6.49,6.49,0,0,0-1.48,12.81,6.75,6.75,0,0,0,1.54.18,6.43,6.43,0,0,0,6.29-5,6.53,6.53,0,0,0-6.35-8Z"/><path class="cls-5" d="M498,47.24l9.23,2.18-9.78,41.44-9.23-2.17,1.27-5.36a17,17,0,0,1-4.73.68,17.53,17.53,0,0,1-4.07-.49,18,18,0,0,1,4.12-35.46,18.32,18.32,0,0,1,4.13.48,17,17,0,0,1,7.78,4.11L498,47.24M484.83,74.53a8.49,8.49,0,0,0,1.9-16.76,8.74,8.74,0,0,0-2-.23,8.5,8.5,0,0,0-1.93,16.76,9,9,0,0,0,2,.23M495,42.43l-.88,3.71a21.74,21.74,0,0,0-4.29-1.49,22.12,22.12,0,0,0-5.05-.59A22,22,0,0,0,484.24,88l-.86,3.66,3.89.92,9.23,2.18,3.89.91.92-3.89,9.78-41.44.92-3.9-3.89-.92-9.23-2.17L495,42.43Zm-10.17,28.1a4.5,4.5,0,0,1-.06-9,4.7,4.7,0,0,1,1.05.12,4.52,4.52,0,0,1,3.35,5.44,4.43,4.43,0,0,1-4.34,3.43Z"/><path class="cls-7" d="M564.18,45.08a31.65,31.65,0,1,1,0,63.3,29.91,29.91,0,0,1-15-3.9v9.7H532.47V26.68h16.71V49A29.91,29.91,0,0,1,564.18,45.08Zm-15,31.7a15,15,0,1,0,15-15A14.9,14.9,0,0,0,549.18,76.78Z"/><path class="cls-7" d="M669.68,76.78A31.66,31.66,0,1,1,638,45.08,31.62,31.62,0,0,1,669.68,76.78Zm-46.6,0a15,15,0,0,0,29.9,0,15,15,0,1,0-29.9,0Z"/><path class="cls-7" d="M740.58,124.79l-41.7-50.31v31.4H682.17V28.68L723.88,79V47.58h16.7Z"/><path class="cls-7" d="M784.68,100.08h2.5v16.6h-2.5a31.55,31.55,0,0,1-31.61-31.6v-8.4a31.66,31.66,0,0,1,63.31,0v10.9H770A15.09,15.09,0,0,0,784.68,100.08Zm.1-38.4a15,15,0,0,0-13.8,9.2h27.5A15.15,15.15,0,0,0,784.78,61.68Z"/><path class="cls-7" d="M844.18,110.08a10,10,0,1,1,10-10A10,10,0,0,1,844.18,110.08Zm-8.31-83.4h16.61v58.4H835.87Z"/><path class="cls-8" d="M611.79,91.53s-7.14,8.93-17.68,2.68c6.79,8,15.36,4.82,19.11.18S611.79,91.53,611.79,91.53Z"/><path class="cls-8" d="M654.93,94.49a16.26,16.26,0,0,1,.62,11.61A43.12,43.12,0,0,1,652,114s4.56-1.74,3.94,1.36-7.05,2.71-7.47.58,2.08-7.16,1.66-10.45-2.07-7-3.11-7.74S653.9,92.37,654.93,94.49Z"/><path class="cls-9" d="M639.25,104.76a34.93,34.93,0,0,1-16-3.94c-20.87-10.88-17.29-32-15.69-38.18,3.56-13.87,13.62-22.84,25.63-22.84h.45c6.32,0,19.47,0,26.94,11,7.35,10.86,9.08,25.76,4.51,38.91C662,98.44,651.17,104.76,639.25,104.76Z"/><path class="cls-10" d="M633.59,40.23c6.57,0,19.33.12,26.59,10.84,7.67,11.34,8.74,26.19,4.46,38.53-3,8.57-13.53,14.73-25.39,14.73a34.3,34.3,0,0,1-15.86-3.89c-17-8.84-18.68-25.19-15.47-37.69s12.54-22.52,25.22-22.52Zm0-.86h-.45c-12.21,0-22.43,9.08-26,23.15-1.31,5.08-2.34,12.79.18,20.7s7.76,13.82,15.72,18a35.26,35.26,0,0,0,16.25,4c12.29,0,23.07-6.29,26.2-15.3,4.6-13.27,2.85-28.32-4.57-39.29-7.59-11.22-20.9-11.22-27.29-11.22Z"/><g class="cls-11"><path class="cls-12" d="M660.18,51.07c-6.54-9.65-17.53-10.71-24.46-10.83,6.12.41,14.12,2.12,19.16,9.29,6.93,9.84,7.9,22.72,4,33.43S637,100,621.68,92.37c-10.24-5.13-14.32-13.18-15-21.19-.5,10.71,3.41,22.31,16.75,29.26,17,8.84,37,1.5,41.25-10.84S667.85,62.41,660.18,51.07Z"/></g><g class="cls-11"><path class="cls-12" d="M647.68,53.29a16.63,16.63,0,0,0,9.56-5.74c-7.59-7.42-18.45-7.32-24.1-7.32a22.94,22.94,0,0,0-14.59,5.21C623.57,50,635.62,56.07,647.68,53.29Z"/></g><path class="cls-8" d="M652.85,50.82A8,8,0,0,0,648,59.93c.72,2.86,3.25,4,4.65,2.68,2.49-2.32-2-3.4-2-3.4s.91-3.8,2.86-4.1c3.39-.54,4.11,2,5.71,3.57s4.47,1.25,4.11-1.07S660.6,47.92,652.85,50.82Z"/><path class="cls-8" d="M623.86,92.69c2.49-2.64,10.27.44,9.82,10.34s-6.25,13-6.25,13,4.24.22,3.8,2.64-8.26,3.08-8.71.67,2.23-3.75,3.35-8.37.45-9.9-1.56-10.78S621,95.77,623.86,92.69Z"/><g class="cls-13"><path class="cls-14" d="M612.9,51.61a35.39,35.39,0,0,0-5,11.14,42.2,42.2,0,0,0-1.23,7.59c5.2,1.34,12.12-3.09,12.24-9.7S616.29,52,612.9,51.61Z"/></g><path class="cls-15" d="M637.64,107.4a34,34,0,1,1,34.07-34A34,34,0,0,1,637.64,107.4Zm0-47.16a13.14,13.14,0,0,0-13.08,13.18A12.94,12.94,0,0,0,637.64,86.5a13.13,13.13,0,1,0,0-26.26Z"/><path class="cls-5" d="M637.64,41.34a32,32,0,1,1-32,32.08,32.09,32.09,0,0,1,32-32.08m0,47.16a15.13,15.13,0,1,0-15.08-15.08A15.07,15.07,0,0,0,637.64,88.5m0-51.16a36,36,0,1,0,36.07,36.08,36.07,36.07,0,0,0-36.07-36.08Zm0,47.16a11.13,11.13,0,0,1,0-22.26,11.18,11.18,0,0,1,11.17,11.18A11,11,0,0,1,637.64,84.5Z"/><path class="cls-16" d="M616.51,32.16c1.51-4.64,4.11-10.83-2.32-9.15-3.23.84-4.72.88-2.75,4.36a17.11,17.11,0,0,0,5.07,4.79Z"/><path class="cls-17" d="M645.48,47.5a44.07,44.07,0,0,1-9.6,1.49c-9,.56-16.9-4.18-19.74-11.8s.14-16,8.13-22.13A19,19,0,0,1,630,12.42c3.76-1.1,16.41-3.69,21.51,9.52,3.6,9.33,4.29,15.36,2.22,19.55C652.32,44.31,649.63,46.28,645.48,47.5Z"/><path class="cls-10" d="M630.11,12.84c6.65-2,16.67-1.91,21,9.25,5.67,14.68,4.35,22-5.72,25a43.56,43.56,0,0,1-9.5,1.47C617.42,49.71,607,28.77,624.53,15.41a18.43,18.43,0,0,1,5.58-2.57Zm-.25-.83.25.83-.25-.83h0A19.2,19.2,0,0,0,624,14.72c-8.14,6.2-11.23,14.66-8.27,22.62,2.91,7.8,11,12.66,20.18,12.08a44.52,44.52,0,0,0,9.7-1.5c4.27-1.26,7-3.3,8.49-6.24,2.13-4.31,1.45-10.45-2.2-19.9-5.24-13.56-18.19-10.91-22-9.77Z"/><g class="cls-11"><path class="cls-12" d="M651.08,22.09c-4.24-11-14-11.2-20.65-9.34,5.72-1,12.88,0,16.09,8.15C652.6,36.45,649,42.33,632.6,43.56c-8,.6-14.25-3.29-16.71-8.78,1.74,8.07,9.58,14.43,20,13.77C654.29,47.4,658.2,40.53,651.08,22.09Z"/></g><path class="cls-18" d="M626.18,33.72a14.57,14.57,0,0,1,3.92-15.11c6.06-5.33,13.34-5.24,15.62-5.73s4.72-1,5.84,2.75a10.1,10.1,0,0,1-.41,6.82,7.57,7.57,0,0,0,3.16,3.16c1.9.74,3.26-1,3.41,2.72s-1.13,8.15-4.49,10.63-11.62,6-17.48,3.85S627.84,38.07,626.18,33.72Z"/><path class="cls-19" d="M628,28.64h0a.47.47,0,0,1-.56-.36,4.43,4.43,0,0,1,1.3-4.15.48.48,0,0,1,.66.05.46.46,0,0,1,0,.66,3.5,3.5,0,0,0-1,3.24A.48.48,0,0,1,628,28.64Z"/><path class="cls-20" d="M654.31,25.61a7.25,7.25,0,0,1-3.06-3,11,11,0,0,1-2.62,2.62c0,.12,0,.24,0,.36.14,2,.89.73,1,3.87s2.6,4.05-.39,6.2S639,40.92,633.82,39.12c-4.84-1.7-6.71-3.71-8.1-7a10,10,0,0,0,.46,1.62c1.66,4.35,3.72,6.91,9.57,9.09s14.12-1.37,17.48-3.85,4.65-7,4.49-10.63S656.21,26.35,654.31,25.61Z"/><path class="cls-21" d="M650.41,27.51c1.55.84,4.41-.19,3.58,2.67A10.49,10.49,0,0,1,646,37c-4.09.64-9.31,1.25-12.58-3.56a47.5,47.5,0,0,1-3-4.7c4.84,2.64,13.83-.68,16.88-2.38a9.39,9.39,0,0,0,1.49-1.05A3.76,3.76,0,0,0,650.41,27.51Z"/><path class="cls-19" d="M641.79,29.1c-3.88,1.15-8.53,1.75-11.6.07a6,6,0,0,1-2.07-1.82.47.47,0,0,1,.76-.54,5.14,5.14,0,0,0,1.76,1.54c4.69,2.56,13.67-.85,16.42-2.38a8.11,8.11,0,0,0,1.41-1,9.54,9.54,0,0,0,2.85-4.32.47.47,0,1,1,.91.25,10.54,10.54,0,0,1-3.14,4.78,9.41,9.41,0,0,1-1.57,1.11A30.15,30.15,0,0,1,641.79,29.1Z"/><path class="cls-19" d="M647.25,37.2a10.26,10.26,0,0,1-1.22.28c-3.55.56-9.47,1.49-13-3.75A52.41,52.41,0,0,1,630,29a.48.48,0,0,1,.2-.64.49.49,0,0,1,.64.2,48.19,48.19,0,0,0,2.92,4.66c3,4.39,7.64,4.06,12.13,3.35A10,10,0,0,0,653.54,30a1.64,1.64,0,0,0,0-1.17c-.21-.31-.84-.39-1.5-.47a5.49,5.49,0,0,1-1.89-.48,4.2,4.2,0,0,1-1.85-2.45.47.47,0,0,1,.9-.29,3.24,3.24,0,0,0,1.4,1.92,4.83,4.83,0,0,0,1.56.36,2.83,2.83,0,0,1,2.16.89,2.3,2.3,0,0,1,.09,2A11,11,0,0,1,647.25,37.2Z"/><path class="cls-22" d="M643.13,33.75s1.5-2.49,3.88-2.63,4,2.74,4,2.74l-1.07,1.43S649,38,649.75,39.8s1.75,6.56-2.14,7.89-7.71-2.19-8.57-5.1-1.77-6-.64-7.82S643.13,33.75,643.13,33.75Z"/><path class="cls-8" d="M633,18.87c.59,3,6.33,3.16,10.82.72s4.81-5.14,1.93-6.71S631.82,13.07,633,18.87Z"/><path class="cls-8" d="M618.27,20.79s-7.48.53-8.15,2a15.89,15.89,0,0,0-.52,8.35c.76,2.57-3.15,1.3-2.29,4.21s2,4.08,2.32,7.88-1.6,7.17,2.42,6.92,6.9-1.85,8.12-4.63,1-9.41-1.68-13.28-7-7.82-5.12-8.54a11,11,0,0,1,3.69-.72Z"/><path class="cls-23" d="M638.94,20.83s-2.41-1.89-.48-2.27S638.94,20.83,638.94,20.83Z"/><path class="cls-23" d="M647.19,16s-.63-2.79-1.63-1.75S647.19,16,647.19,16Z"/><path class="cls-8" d="M620.21,23.57a2,2,0,1,1,2.44,1.33A2,2,0,0,1,620.21,23.57Z"/><path class="cls-24" d="M644.24,43.34a.43.43,0,0,1-.53-.29c-1.12-3.79-1.74-6.34-.87-9.82a.43.43,0,0,1,.52-.31.42.42,0,0,1,.31.51c-.81,3.28-.22,5.73.86,9.38A.44.44,0,0,1,644.24,43.34Z"/><circle class="cls-25" cx="622.38" cy="22.66" r="0.64"/><path class="cls-26" d="M664.06,22.54a5.64,5.64,0,0,1-2.7-.79C659.11,20.51,658,19,658,17.36a5.62,5.62,0,0,1,2.23-4,5.79,5.79,0,0,1-3.39-3.06c-.5-1.4-.08-2.92,1.24-4.52a5.22,5.22,0,0,1,4.07-2.18c2.77,0,5.13,2.54,6,3.67l12.63-2.52A5.91,5.91,0,0,1,681.37.2a4.32,4.32,0,0,1,3.79-1.67,11.24,11.24,0,0,1,2.43.3c2.48.55,3.9,1.6,4.24,3.13.39,1.76-.9,3.63-2.13,4.94a5.47,5.47,0,0,1,4,2.11c.83,1.31.74,3-.25,5.15-1.12,2.35-2.61,3.54-4.45,3.54-2.37,0-4.43-2.09-5.27-3.08l-14.61,2C668.77,18.36,667.55,22.54,664.06,22.54Z"/><path class="cls-5" d="M685.16-.47a10.32,10.32,0,0,1,2.22.27c8,1.79-.18,8-.18,8s.37,0,.93,0c2.13,0,7,.56,4.42,5.93-1,2.22-2.32,3-3.54,3-2.51,0-4.85-3.15-4.85-3.15L668.27,15.7s-.71,5.84-4.21,5.84a4.62,4.62,0,0,1-2.22-.67c-6.78-3.75.54-7.85.54-7.85s-7.68-1.61-3.57-6.61a4.24,4.24,0,0,1,3.3-1.81c3,0,5.62,3.77,5.62,3.77L682,5.52s-2.14-6,3.14-6m0-2a5.28,5.28,0,0,0-4.61,2.09A6.4,6.4,0,0,0,679.64,4l-11.1,2.22c-1.21-1.38-3.57-3.56-6.43-3.57a6.21,6.21,0,0,0-4.85,2.54c-1.93,2.36-1.83,4.29-1.41,5.49a5.89,5.89,0,0,0,2.67,3A5.85,5.85,0,0,0,657,17.36c0,2.06,1.32,3.83,3.92,5.26a6.54,6.54,0,0,0,3.18.92c3.47,0,5.22-3.32,5.91-6.05l13.37-1.81c1.11,1.18,3.21,3,5.67,3,1.55,0,3.74-.71,5.35-4.11,1.15-2.44,1.22-4.49.19-6.11a5.44,5.44,0,0,0-3-2.21,5.85,5.85,0,0,0,1.29-4.53c-.43-1.94-2.11-3.25-5-3.89a12.62,12.62,0,0,0-2.65-.32Z"/><path class="cls-27" d="M687.2,7.84s8.21-6.25.18-8c-.39-.08-.74-.14-1.08-.18,2.51,2.32,3.92,6.13.4,8,1.94,2.12,2,4.75-.9,5.69-2.33.77-4.83-1.32-6.73-2.2-1.65-.77-11.21.8-12.79,2-3,2.24,1.82,6-6.38,6.34a7.67,7.67,0,0,0,1.94,1.43c5.44,3,6.43-5.17,6.43-5.17l15.89-2.15s5.18,7,8.39.18S687.2,7.84,687.2,7.84Z"/></g></g></svg>